<mxfile host="65bd71144e">
    <diagram id="R_IxiTUpqEcwXNc7Ztj7" name="Page-1">
        <mxGraphModel dx="1464" dy="906" grid="0" gridSize="10" guides="1" tooltips="1" connect="1" arrows="1" fold="1" page="1" pageScale="1" pageWidth="1100" pageHeight="850" math="0" shadow="0">
            <root>
                <mxCell id="0"/>
                <mxCell id="1" parent="0"/>
                <mxCell id="6" value="API Key" style="shape=note;whiteSpace=wrap;html=1;backgroundOutline=1;darkOpacity=0.05;" vertex="1" parent="1">
                    <mxGeometry x="450" y="11" width="80" height="80" as="geometry"/>
                </mxCell>
                <mxCell id="2" value="" style="shape=image;verticalLabelPosition=bottom;labelBackgroundColor=default;verticalAlign=top;aspect=fixed;imageAspect=0;image=data:image/png,iVBORw0KGgoAAAANSUhEUgAAAMIAAACsCAYAAAApH3MbAAAAAXNSR0IArs4c6QAAAARnQU1BAACxjwv8YQUAAAAJcEhZcwAADsMAAA7DAcdvqGQAAHcvSURBVHhe7f1ZtGVXee8J/nff79OfE3GiVUihvgOEAElICIRlwNgYsMF23azMWzdHVeaoh8p6qMwxalSNesrXfMiH6rJG3rzOa/sajMHYYEAIJIEkJNQjoT6k6OPE6Xff1+8/194njoQk1McB7S9inb3a2Xzz+3/NXHPOFZM0YBvTmD7QFB/+jmlMH2gaA2FMY4LGQBjTmKAxEMY0JmgMhDGNCRoDYUxjgsZAGNOYoDEQxjQmaAyEMY0JGgNhTGOCxkAY05igMRDGNCZoDIQxjQkaA2FMY4LGQBjTmKAxEMY0JmgMhDGNCRoDYUxjgsZAGNOYoDEQxjQmaAyEMY0JGgNhTGOCxkAY05igMRDOI8ViXlbqzdGbv3NMb4fGQDgfFKQa1g9ioQFesxF8z1D6t+2O6T0i83e80t17TpEo2wIg+9EZgwDOc4ajgfqxPlvYjWi0H+6Jtj7bmN4b2s76Mb2n9EoghGM4b2vg31Ez9Pgd+MQYCO8rjYHwPtIoJghgGG62DLFeTAkgwR5A6CHwhsMradxQ7y2N+fs+k8GQSKYRdv/rBTWfUIorSRoCi9Fv0SKdcaO8zzQOlt9nGiDhA/s4g7iS/Gb7A+U4kWCLJZOgIq5BAv0UfKbwSPQ72h/Te0Jji/AOKBYb6ZHfZOHAEv9aZPconQEEXU10e1qMJTQTz2i119Mp0lmLd9RNgBCDZbRto9frcn3d/Mb0pmgMhHdA8aHadnAbAtzthKY3cwOD+bMVJCPYGfanuf3qVFKfWVzU5fO7dWx5TXcef1m/6LQAhNRx0qNgIiSNxeCvIwnTABBGOfov+Y+B8I7IXB1z8C2StbLlPhXYl1CXn368j3Ai5UOpt7GI9/pKx2PqJxBsI4CTk4QF16XTum1yQrfOTurifFr5PlaA88uJjL597Kh+vLGpR5s9LRFLtBLEE92uxBYf9IYwMAjikbGIEVg73+GVV+Pxt9EYQBGZe2NOvEUaASEe3BQE3drZVmHESk7Hsyn1220luoCBUwW2fViAa/MZfWn/fl2dTmi+W1W2U0WkOwE8vURWS7myHtlo6K6zG7qv0tCLnY7W4wm1AFToSzKejCzuHwQQgCAXxlkbgM7/LdAYCBGNgfB2KJL/ob+eQP6GsQKcBBYcI61pHCfUfK430EEAcH0pq9umi/pYsRDigkyvoV4PEPRbSliQSauvpGLpstrKETMkAERdP11b18/qdT2HRdgkn04sSbANEMgsJixFjM1HTiK8kXtrNAZCRGMgvB0yCPhnf32A8CqG9g+gsLq2dicQRsD2JZL6cKmg66cLum4ip4uTMZUaVSV7Le7tqYdwB8sSJw1SihoCIY9hQ5JZ1XGVjpHkg5WqfrFZ1882ajqJAahgIdoJu0YcsMWIRxyTvFFLjgT+1cH2GAgRjYHwNmjLNQpAMAhSWAFYOWgDi47muXh9uaRbJyf1qemy9sVaynUqSnbbwbOPx9pOhS2rQaJA6IDg4/+7KQbdJkIdAURYjn4qpwp5HCflu9ar+tnaph6u13SCe2vOk3vsosX6PfXZXk0jQR8D4Y1pDIRtZCF5M4IR7rMMsgW3KJ5SAo082+/rikxKH8sn9bm987oQoZ9EwJMDQuV+E1eoFYJnDAOUUU1FHcWdOY0AFwmML8jnNd1pKNGpc72jAfeGjIgyeomUqrm8nq429PPVTd29UdUj9SYBta0DFqVny4D5eFX5x0B4c2SufOA5YSYERmwBYXTmVRSEiOvBp/dxxLoMPwso4xvLBX15/57wO1tfwwVqcktfbWvqZBxvJ2s/SG1cn41YTo+v1vUvJ8/oiWpNe/Np3bK4W59amNVsq6Y0YEi5l6jbwmIQOxA0u+eoW57QarakhypNffflU7p7s6aXKfPQSVIX8BictlVRaQ0O/odi+1xUL+PLpR8DIaJhy37QKEhx0I6Ri0OAyxkLh319j//xm19TUMjeTEMAGA9JfPREu4vbI12fT+mLe2Z0A+7QHAFsqoPwOo4laPaQiR5AGODvxzJFrWcn9cOz6/rx6RWEuUIM0FedNAi5NUniN0yVdNvstG5G4Pf3CJubG4q3KzwvAMRdxAeJFBaoMKn1eEb3La/rX04s6eFGG/cpoWXy6nIP/lLobh2whdpheeIIfXg9wdajEtFoV4584gNOgRXR7geNIiBEexELRp0uAQjh13/dNcodARfoXH4dCM/iCh3O53TzbEmfnCzpEryTyXZNiVade9yr4/FDHi6RUDdd0Hoyp1/hyty1sq67EN4XUOHLpNMkvYF9JQLsGEJbJqPLsxndVCoDiqIuz8e1CKrSDrJjSYQZy9Bu8gwZZkpqJAs62kvqZ2dWiR829Fi7pSXSXWdreWi3S0E9EgbCsJ7+G959OFsfRKc/0OQW/8CyYeTrb2l6nzQ3hojw3wQ32EoMkCZr7WnuvdaCWsjq07vndJiYYBKXZQAI+gS6KTS83zjHuujh3IRqqbKO4PLfg5B+d3NZD7UbQsf7zQGpOVMDsoewutuVc/j8yV5f5e5AFxfS+sRsUZ+aLOvaVFq7eCKF2zTosFGeAbFJrJ8FeHnV02k9U4+6W+/dqOmJZkcnKautTdyeGXn53+htR59rBkkAgo+jnw8sua0/sEAw2SiYCdGfbcSFOELZc7CLUE4hKRemk/rEDK7LwowuzyS0gHZOtRrBdw9DKownpNmQaaYKOsLpX1SbaOqaHkNIXyStCun2cHGcXQwrYADEedDP2up0PeiOi9xKOD3QHMblsnxGN06V9am5CV0I0ObbHcrUCqo+FkxVXL14V71MRmcHKT1T7euhzZbuXl3VYy0sBHd0nSfAseTH+vbbAgwCEKK9Dza5PT7YQGCztjQFV4EthjAG/WmhQSL34A99igD4tplpfaiY1gG8kvyghRA11QMIKHDcliy+e0HtVEanOzE9crYSujrvbtb1HOlUcZcGfWwF3HZga/HzCzFbmeB1ceSG6HFD5L+7IPwHKH4zvUAZPlzI6DNTk7plclYXUMZ8v8kDdcrcVq+L2en1lMA69FKTWo3l9cBmRT8EDHeFWERqEqR3AU7fbhg2yTn+ltcPHxiyBPze8mF75UbxwLleEh9b3CMgWCsip9xvycAFwR+f5/djpaRu3zWjT6KRF7ttFfptXI2uuh3coDxP2yIMkuoVp3Q6UUD4cE9OrurBzYaOdXtaR9T9NtgpR702fcQ/mprJCc7zE/z3CBL9BMFtfKijoyJzJaF0N0He0i6S+lC+oE/Pz+oTEzktqhlAGe/hbPk5guV+BzcrnlWD2GQtX9TPzyzpnrNrerjS1BFQuAqoHCMEWwDQglkY0qu7V7eXwxR1JPh/5GL9vpCr+PtUny2ylt1eOYt8FBz6jK+c20JnI460mzbF9SK3HEymddP0lP7swIIu6zc01SUQ7hGkttukAXSKRWSuHrlPhSk91errn46e0veX63oeV2otllLHQTNyliTNVAQ1QBAFsH37+M4eMhBipGkgDABCcOoNkvAeAUerk0DGAVsY5tdTAW1+MUD6o90L+sz+RV2cSWqqXlO8vo5R4JfnE8kMII2pjQXolSb0fKenny6t6EerFT3e7mqNfOvBTRsWAtMQOVkGKYdswysRXl2UsA+3KLhr8fsEBdf1d782oxYzDWsTNaq3CBIWvnCJVg37+MxC2C2NCbQoOlIZXIZLEN7Pz83q87t369LkQGWEP96vB6HvtdnvOALIYgTQuPmsXkSQfnR6Vd8/u64nCZDXyKSFxnXIHIhjF29oc8Kp6G9EQQ5DK0SViH62NwkngpAasFG/T5/gOsVOmf2Dubw+vbBLX19c0IWAtdCp4H75/YVvpAxItNMcpFNqp3N6GiD/4NSSfrxW169xpZYoKxgh5QSBvoP2HhaMmIJHnYQnD8GGAAw7VAP347puIcbw5rvePO3U9xZm+84s2Vsh12I7USOLoTeHpcEasNkxCW+CPU6He9woCSRxGgDsxuW4Ch/81oVZfXJyUgd6aPG1ZdLuoKXRf7gdMQPHY4DQ3iuJtO5aWdM9q5vh5dYx0tuI2+UICYcyjHbP0XYInKORUg60bT88O3zepy2CPuyFynGG5BxzzHF4++ysbihldd1UUQcycZU6DaUauEzu0UKEqWjocm1RhxWC6ieaLf3k1Lp+utrQUQBcoewd91zBmKDrnSFpJ9hs0XxsgPRDKWzBXJLXrs8b0RgI7wdtq41lxYfRr/cSaDX8cG9ovRhSmqNNp/H3P4qv/ZmZgm6aKukgApPvdpRokxSqso8PbqGLJTJqZ4paou1/ub6ie6pN/aTS0Au4RG2AYaAFdyFmwXPPjPO0BuVni3674GxZCOjVQBieBpTs+cbRNQQ4S0X3Yc0+NlnUrbtn9ZFiTgf7XZWaNa5Tj0FbHUARR6KTKYLmbFbL8bTuX27pDtylu2pVvYRFwJYABqwPaVtxWOBx/kKdemQZxVEQ6QSj8BZpDITzQCPBiaHt3OfuNrDQZGjwBYTymlxWN0xP6MaFvC7C/s8gKIlOO8gY4oKPgybFpehm81oCUk+sN/TAekX3Vyt6kmtnSLuDhfG9Hmvk/qCwPhF7ziv4/K/g7lsDgltm6/lQJsgCGHYspN73BQfHfSVxcaY4PpTL6OpyVjfPlPSRiYL2UbZM6OYlvgHkft8R95vnbBFLUNILxCD3rtd038q6nm22dRQLuWkLwWYIuLs12Ann640yBRBwwoL9mwH269MYCO8DjZojVGjUaCYa1APj4v2+CliAw6mEPjs7rdtnZnRVJqbJ3mY0NJoH+wiNB7vFCXa9yEormdNzBJd3r67jBlX1eKuj4zRmzVoZMgAi9ytio+UjaE6EJLyIewV33yoQRjsR+dDulrW1cwxxg129kLe1fhToeu7/FKf9su+jhaz+cPe8ri4UNMt9g8YGsU5FKfgQT/jtt7tU06omC3q5m9Av1jb1/ZUzerzT0Qp1rPvNeLAC5AFAhMu4ZQnGQDh/9HpM/w0GWz58qzcaLk+jXYSPfNPUpP4AwfhoOa/J5gZ+tHtZuM1964Ah+L740Y1MSWu5kn52Ylk/WQYE9YZOc6lJGj0kvdftIfA4RGwWzJAdvy4Fipnf7UDwn7DzW+mNgOD0Aw1BaDI/ovzJ0ULJ5ng2gIaCTHDPpdmMbpmZ1ieJH65C9mf7bSV6+H5htColt7BT6m4qRb0BPi7fT06t6MdYwCdB1lIyFl70uTIxrGaY/0Ah31yNXkljILxLtAWE0Pi05TbJiZhsCfARQsqxe/An2T6KX/y5vXt009yUDuEvF2uryFMraP96y1YgqTRBZjKXV4WA+IHNmu44saT7EYYX0IJnsCIWFDvJqTYhI+5VG0nzUIXIjx6WJ3AzEpJ3BIRhOtspAIFTIUYYpmfL4PMGpBe/cHBrqxAC2+FtOX4W+f0Qbt6f7FvUZ3bPaQrQ9yvrSraJh4BBPB2B2pazH89oMzOlO85W9K9Lq7qvWtVxQNOkcNiEYZ2deEQhf359ynmGcr4OjYHwDmkEAIuY9+wWWJs5SPVZW+voCgJB0JimUacJEg/j+nxqrqy/3H9Y+2nMbnNFMU+S6TcRALx4j9fBLegl8ZdjGT2Jj/zDM0v63sqGnul53TmnKLWR8tAlSmv7vVUIjaMiRQQXDYQRhZ6X4f5boVdavKhuUQm2EZIWpR2BINq1cIafcC2Ubbi5+9NWI83BItr941Nl3bYwq+vzWXjSVrZewevxrDlux+L5rUcX1zCeL+ks5sUD+r6/dFYPtps6SvlqpGFjElBv19A8IZ9oIN+wABZ4/r/ago+B8A7JDDWPLbxBC/LPe13Oj4YjuCYoNk0DgsOZJA1e0A3zJV2O6d+Po5tu1vCHqzRwQknA0kNt9lMFVVJ5vdjo6pfEAHevbejBBg1OYu20W5ZcvDl5q7xt3NreqFtAHZ6yqG679U3TmwaCE/8tGYzYYqvYx//rA3q/RS8SH1yECbsR63g7buKlIHgeIGQ6dQCDk9QD5GQZ7wL9XEENguqnGi1ipDXdtVnX0yiLM6RTJXGMZQDZyBL1hkAY8WYMhHeZRkBwQwbNy7HFw4GcgWCAFAZ97U8m9LFSQZ9D432smNMCvnCqWUXo8W2tygdoPu6Pp4qqYwVOxXP6ydlV3b28qscaDQJhqZIgDrDgEDCGXGjpwKg3AYQRvd0Gf7eBYF755Zu51o9lAUOC1LBzdg9RGNdm8/p0uRQWFrgk29Nkv0780AsjLzpehQM+OIbqwZNKpqCnKx3ds9nSN7CYTwGYxlDwDQSXtEfBXKwxEN5DsjuUQrv3aSX7yYHlaGsHwvsTKV0/WdDHJ/O6bqJEYBxTuVlXDHMepIH7PI8rlkoS8OZ0opfQL6tN3bNR1wPrGzpG43uViGaM9MkjDDXoRgPTAosCl16/Ud9vIGwV6fXIF3nUVXf84r3RQI9wKe53KX1lUOm7qbdfJn4S6/mJ6RwWNKZSvUa23EM9wmhV5xdLqkUap2cW9X9/5qi+u76pTVJ0VW0VXNIBpsTpuwfLNAbCe0QJglp3dFioU7TqHAJ+Za6kW+fm9Zm5vC6MtVXyUAjcIGvzWDrLnTzg9wiZjFap7RNrFd2zvK6f1lv6FQCo0Iqe1eUxRMG+OyQkvhgJnOMCN+CrG/WN6D0HwhuRLde5n2Eq1IG0I8F2cB+9IPNb6hhKJcs9e1H912VS+tKuKX1ydkIz8CDZRJG0WzxDGewioiSqu/brv/nVi/oH+Lhh00G67kZ2PrYIBsGo/mMgvCfk4iaVRJNNIRxXZVMI/6RunZ/TYSxAsVlRqt2gwXCD3L+OUGNDpOyEVpJ5PdFs6M6lM7p3Y1NHvHAWqdVTcQJhv/jC3hDtuefF42364Q1xxBw38e8UEEYEEnzrcPZDwLj1tcEQuls5NhA87CRB/TPclUawL8C9vC6f0+17F/ShXEp7sIxpwECltInCeCSR1n//4nH9rNbENRq6q8aJ0yNDD9N4PSCE+piX5qx3vedb/Cc88ybr9i5TKEK0uzPI7o+Z5KY3k0Jr0Ti0l0U66grk3CcnCvrCwb26vpzXjKcx1hBrfIA+gWAbLR9LZJXMl9VPT2otXdS/vnxS/3LiuB4iIDxDknUbCX6drrsaB7hKcVrSvq7fp+J8RW3DdfdM/a4Dwf9CD1h4lrr4PHmZ187TUZbfIndD0nEVCZqvRrl8bm5an9u1WxdPlNWiTvcun9G3Xj6mO2otneY58ybiWSyK14Zpu/7+5/YbFTcIPPeFv7Spq+pLYdxr2ImOzge5VOcn59ch+7MWePdydFIZDRJoq243jP+Zp7SfzKf0hwtTumFqSrsoeaqD6e7ShDC2raa6aK5suqBeZkJnsAJ3Lm3oR2eX9QsC5jPcg70ImstNn0RzmTpu0NA+brSwA0XC90qB9jVvrxLMHU6RchnKmv9aAiEL6Ki2kdgCC7RDxAMiClzGec5dlS3qQGlC68Rcj1Y2whAMuB5AYMMbhnqElKxWbB0iRdJPcZa8PGbLLPOEpzD/23fZ9RyyNgDBKRg8tNH5oBF/dgyFhoEvbrw4gWseYd0N864hmPv4XEE37S5rX6+jqTYxQo+mMOM8RYxaGDjddE7rg4Se3Gzop2c39PNKU8+R5NKghcBH97nhPPjM7Leg21feLiBRgw4pdJiPWOTr3s5PY71d2m5lRsAOAvoKkG8n7ndXEYKc4J48ZsLzNNrwIbxUG7LHAXL45f4ABtwrC3U0QtXvF9rEHj5yRIeSSyfVYMefQfGymCF/p+Ggb8jX1y/Te0vO/fzk/HpEiRLZBJq+r139uK7J5XVTqaibJ/O6bAIj39/A/WmhdbAUXtWB4qdCTJDSWqysZ1sx3bOyqru8onS7qxWC5LYbve+lGCMBtuaLRCOqfmDAqAGC0Px+AeGtkuOrEFibF8FsUF/zh2PPW3Aw7DgqAkLErzjKJ2h097rFssQaHRRYVxfn0ppJp7SB5T5ab+oUis29c238qcB5p+Gk+bc9yH6/ybU4Pzm/Dpn5qURKh5JpfW5mUreUM7oyHdOeWE+Zfkvdfh2+I9j49D0vtZjN4O50dYqa/OR0S/eu1vREo6ETtF0FhveSCDUA8IA7r+tjEd56Aedt6B6d44JPbgPCb5jq8FC0+5bIz+0oVr8uRR9AcXm9j9AH7e19C2tUD89RMDC6Bo3fzsMzOz0xYrR5zh3OxHVdIacbZ2d0MJ/VJq7p49Wmvnt2U480W1onTc+OM5gCoOCz4wu/oDsftONax+wsERLfWi7rvzo0r+uSdZXaGzCLxomjdbz0iV0hgOC3wqd54idLZ/WjWkO/qLUDABpYCneZBuUSVtrqhd4gK7fQcxK18Str71+2yI04B4TX1lBvFQhO09vbAdD7TyMguOZ2dCz0I5Z52Hk4b76gkPqO43x/z93ZXe1Dqj89N6mbJgu6Jp/RQQS81GoGbX+6NK3/4cUlfWtlTSc471X57EQlQtesgcEPyb4Wx99rOtfiO4SCq0MoVoq3NJ+OAwqOYbKFyEGt5+BaC/WJqE/W13THS8f0H85s6HvVVpg2WU2l1E9yEdAEyec5/3jPymyo0CIa/RoZ4cJvoyi93yeyS7K95pE75A2VZMvL5i5WC+nWomB+l5PE+08Agm5fmXZLF3Zb+ouJgv6vF+7R/+mCBf3xdEGXJLsqdaohVnDgnWk3NYnrlDFwnIff3Qzzj3qwzh/tOCBEYsbfpIdPxNUhFhjYBXJRrS5CZMt+Iq4Mpnd6tqDpTCLq//fYmE4XLc7mMchbkh41oB/domAanKZZ4Auj7YNHUbdBJJvhd7SFADjSEeZdD1CEIBq+DnptZfD7F4jXbsyk9H88fKH+u6su1V/MTujyVk2T1TWlqxUMsod7ex4DgTNtViJgzpBoyGu0QW6pMITlPJEt0/8j2t0ZZIZYAxUSSe0plLWQK0ZDhd0GMDQNs7x8IQhRnjjiwNSMrluY02EY3Mb3bPV74SVPz24UDeee7hCUDeXdDeuXR9GkflsNvw6KPNzQ+xFus56KtmETDbd3Qu/0+XeXXM+h+FMy6m1H3fzhjPkTjR1yfBDDNSIG8Jt5W1m7SfC4BF8vTcX1J5Nl/e8O7tMflHJabFeVbtfVaVbURSH17L46ddJ2L10bhfbwRl2P48aukkZvGLu5fYJeCjmeH9pxQDB5amWt09GpjQ2d7aBRCkVli5NK4zSlUE1hmEDwfLqKNWuaQCtdSIMcoDFmU1iHFo0AeMzUaNSlBTx6zo0e8mCzYY6M8+vTzhLfd5eiulH76H/kEYUzqAQOrKDde+S53h464Z6iKYLc/QDgD6by+vq+GX1x14yuIA4r0w4JD+Xu017c4/VfYyiZ0PsE4gyoDu7UI5WmHq83teoYYZif/wRjMLYI58isSKXQ7piAo72uflWp6NlaXQ1gUEiXNYkVSONzhvU/+w0sBYEwaj6LhtmXSeqyQkFXZLOagtH+Is0mmqlJgwQNh2tlryrwm2cMAo++H4nEsFleQb/PQAjVHW7+iSyiBdcn0ObD32gsEvyFibdO5PQXC5P62p4ZfTyf1q5WXelmlae6QauHZeltAVBAcccAnPMaTqRCm2IRKi2A0NIKjI0WGYsU0fl0i0w7EgieN+wGQMRVxwKcbnX0QrWqI7WauimYTEyQzeWUxn0K5h2h93zaQcOrvkm7M1ldVC7pUL6gHKk0cJmaBNwdTyjxlMME1aaRQjtzv4WdVEPeryZf8/n3tplGOby3ufwGbc/S5sBvfpMIL0ooGqAXV5m2uAAhv7GY0Z/umtaXd83rBmKzvb2mMo1NxduNrSR6ibS66azWeKaPwgqt427rIXdbiWwAwmNYBK8E3kX4I2coSoFT5412FBBGPRaBOcS6fmnmFzjuslvDgzzSrOulWhV3qal2PKlcvqhithBmV4Uh056MTsDsj2tM0qgHAMRBtNZcPqVWu6UGcYWZ769ghqVd/C+gwA0xas7fpDe++k5plPpoOw/SYG1irQBPzf9Br68kAjwFc65HsL80O6k/W5zWZ8oZXYiFLWGh43IQDM/du+FP4GZKWk/m9Wyzo4eWNmmzpKaSSWVRUgnHAlSrkciFZScfR2EtAxZ3Z7jG5+p+/mjnASHaC/+9RImXR4nk1F8nS2gZd+m5RkdPrNd0qkXAlU6pnM2ohHVIovXj7i1KoP27Xp6xoVmC6MvLE7p+bkZ73OBYh0a7R1A9UIfGsTFxZq/XDL4y+jc8EXzeUNR3RWZD5aLdQO8+EMzXc7x9FY1OoxjsNyZ6A00OEroyndHXFqbZpnTbzIQOp+Mqeng7fI0RI7gXyF/yUaqgWqKgpwmMv7O8qn9/clkP1YkZckUschaL4vc+XftHamAlHqo0AIJdI08P2sZbA/B8KIEh7VAgQPZZOIy+aI8faefe7hI/HjlqjXIMzfTy8pqUTmtiYloTxZIfURPr0MVVwhNSGmnPttsE0QMdLha1h8DbX7pptbyG6bDHgmdGvRahBOTpXtWR2+qzvh6+aRb9D8V7dyikFu0GepcSHiW7bfNPtO8/5ufw2D/wM4fQ7oInH8vn9NX9u/TVxSldk+prEgAk6sQB/nwVlraFxY1n0lK+rM10SfdtNvUfXz6pb65W9Jy9VCzzFXPzujKXBggAx8NboFoyg0Vo6LEABI/x2uq4DWX6wANh2Cxb7RKCtqEURgPkvGc3Bm0f4SK4NHW2U2wPrtX0y9UNbSoFVrKazpdUiOOjuucCSyGC6MGgGr5tfCGB9HUzc7ocQAxo2AHayul4ToK/c2Y4hDy8y+YfF8qjYIP7wEWXx9uWPPEb9Bo7r619hzeG39fatpMzfzvkdLblEQrlMnPoVh6WM+6VOLyZqLN7dzIwczd1u6VU1H95YFH/1cWLurkgTXtoe62ibqtGsay/SQOlE4O/G+mi7lmv6n966YT+51Mrugcre5L8GrhU0/DqoxNlXZmNq9Sr04ZeqTumZiqnR4kRfoVr5GDZ7yacZvgbyjv84c+rt/eadpRFMLnKVH24H+1ZNKwtrDNGjAndepyxAHvdztP4/89tbOosrk8fs+5lWdI0eHhjiUXoddtU1vsd5dn2cP0wAfUiQXei3w0xRh/f2IsBhHH1NifsW4Kcl7ftQrp15J1AWzuvQb72Rte30zsBwivzCPwjOQ+H8L6BEfpo0PruSs7iSs6zfxWa+wtzE/rK4oxuLCW10NpQsrpOIIwzGsDC0ygUxwFruQk90Y3p744c17dOrernjZ5eIiyuYQWsLLz45RzPfKRc1OUZLxTgRSQ9X5xgOZUNQHiCYNkWwbyOSuyyvbLs7zftOCBENGJQBIDgxo/IDDMD/WsNTeP6vYN7gyocv9Rs6rlqVUsW7lRSJcBQxJdNxTI0PtW1KWFLen4D56+YntYVxazmEfwB/nEd4fALOb/VDn5zzNrTbLIlCGLEOY6saV9B4crrkK+90fXt9M6B4L8uni2rS57CqoY9D45L2ML2NQHoL8fv//xsSX++MKE/mizo8kFDE+0qqrqjdncACFKkkdCAgLlBIPxyJ6Vvn17T355Y1j/j4njxr3Ws8GCQDvlgYkNwPJtI6ENYhMuzCYDgRdM8OhiL4PcIuFFb3acU0mX0Owa36QfeNfoNMmMge0dBE/swbN4fHmyddyPbh4+FkYtNHlrp9nWs2tDRSl1rWAPRkLn8hJJ9bAI3xRCCMI8Bn1idpmYAzAGsw8FiTjMIe6rZVqfTU5uGDjO2jAm/qMOPjtY4jWKK0G7DtjsH3deiUNBo97fSMMG3TL+ZRygefOkDeP96cFsJV/AQft2nJ4v6872z+uJcUVcn0OK4P8lmnQf8Xoa6JnCBUAKtbFkv9JP60Xpd/+nUWX1/zcvfd7RMei3StVUOZifWwyLwLLtTuFsfgp/+vFawCAEI8QCEhzei9wjL3BcFy1FBQ1mtpN52/d8Z7VggBI07aluOoy1cjLat4+Eh/PO8WR+4u7XCudMExS9Wm3oR7eUh2+lsQXm2FM/6u2WufQzt52UM8zTYYjqmS4sFXZQvKk+0XG+11MSyhIkkjjd4wJ1S1lxurlH2PnhjP9bX3uj6dnp7ghCpg2Ee/olMQgCA1zhNI+D7Y33dNJHXF3dN6Y/ZbiiktKdVxVWsR8YVheAuVM/zjmWLWsKC3gcA/uH0iv5xdVP3ElMdJ80qQApdn6HeMJ2tH+9hlf2+wAsRJ/ThiZKuMBD65yxCw+8RAMITIVh2jECJR9Vlf2wRRjSSl5FQbR1v20Y7vicc+9AtErktZrjHtfhdZocGqSHQSwDiyWpNJxod1bkvk02rmIoDCC9X4kbyOwhbiJayNPI+gsaLvSRMKqMC/qwH89VIrwWYujG0oPOyRTEN2+7VQPDxaAsFGwHbDwzLGz386u2306vzMkUg2JYXMu3NscBeLN8NAPnrc3P6q/2L+tRUQftxY5Je99VldAxgPnjUbjqv9UFWj7dj+puTK/pfl9f0U3hwlHSq3Bt9YYdt6Bu6V8+WO0KSxyUNNAPfPwL/gkXot0kbPnPNMcJ218jBsh9zGaLav7n6vxe084AQfvEc4W7KXXrwxpt7aczxIO5DptvXjwTAz0Q/YQom9/p8GCODdmuwOTh7uV7Ry5sbarA/MTerUrkcuvZCOOBIxMkiEJ3qhiYHLR0uFHTt/F5No8nWa1VVOp4YRMxC+qHxR1v4Ge2EzL0TDl3s0aV3Sk4mwlMkOK+k4VV4F3L1SzH8ut0U9K92Leq/2LdPt82UdIA4IN/GDcK9ceN3HEvxTDyTVy9X1vFBUj/EAvz7Y2f0vVpTT8OrTeIKD4E33yPeRqUwuSQBTIEhkfs4BUOvncQiOEawRcCmeoJPA8Xy0EZbjwGENdINwTKP2WpF9fnNWr1ftANdI9gcQ2Ojnbzw1NW5jK4s5JTnSg8ft4kmjvxzM9+C77bHU+XAMYCPPQR74Ak5biTuD8uz0BgNTPdpGuoJYof7T57Ry422EsWyypmcMrDCIyE9wQT8cH+X2K9Oo/Z12UxZV0xyH/61+9IrpNeMe/GToTCk8KcJEEM/VijUsEl9OdwSlTU65o830/Dnt5H9a//zkAUvPRadZGM3iKTzG/r0/giiv5FwKcL4tfl5/TcX7NdfzU/rcLylTHuNCLWGK9gBAR4ajVVIJ9VDQE8McvreUl3/7xdP6W/Xa3qSAq+QbtRpEG1hWDbM9+9IBTkm8NqqQIDax4OfX0jQbgZCLqVi+PooyoY2aaYzehCL8GStveUaRYbF0CI9EjxfVmHnAQFmJJKxMMLxCzTkn+/fqz/cu6DLAIPX7PQyjF6b0357D4b7y/ZhhhSNk3CvkJPAZ7VABj3D+fDxDhBipnt4doP7K1w93WzpeK2udgIgZIrKIEhegcHgsafkRo51AEu7Fd5QH5qcCN2tGa4Puk20qf3iVDDx0QpvFo7oPYPrYUEJm9MJ/yIa/b5ZCi6Wf9miWrnO3ixIJE690rZyAPRCCn0LgerX9u7VFxemdW1qoHxlXbH6BmUmGHaICg/6mYzaxEJn4mk9sNHQd06v6zsrG/olbuRpLECNzDxydyid4TeUYVtdwq/5nkwTWsAHWwwszCI3fbTgKbbpMFx7QGt5plsLwP1yvaWn6p2w0JoH6JlZoVM3gOv8OUc7EghZtPDHp0v6t/v26kaCsAPNdR0ikLWW2cd1r3HaCtYhejsZeetBtfD4iJXshWtmNncE6eSsd9GaAxp5De3/MoHbUx6ugRvgEZDlXF5FthRWKYGF6Rg9ADOFkJXRaheUsrpmoqyL84UQO3gMUwtgugckFJ5shrIZmOvfyA/mqrforki43iT5OUtg9LV9HkWQw6p8pG7Ap6nlXs5fj/B9efe8vrp7VjcSCC92veDZ8I0wGVpfCGH0RwVPU/8nqO+3jq3qW2c29aNaS8/YDUp5hh8ld55cP1fOUGrIJyLI+5wB2aUtel5jFoH3x0huLuXDd6kPoTyy8M29c14rqkO+jwQgtAEC8HBdyMrWwLzi1HmjHQcEN3oJLX8FTPt0qaTdXsK9U8WnbWsCi7Avn9ahUk670illOoh5u6cG7k7Lwp5Et8Bc66DwbYKwOdUAhyCgQaNxk1nv5mwjHZtYlpdajTDc+xTC3XWQnCuogKZLWMtZLmJeOaOptJeSockPlHA3AMM8z8axGh2ErRsa1/OlyYT/lrtIXKItKktEb7XNA5gsOKTkOhoAGYRsFxbgCsrwVQDwpfmybprIYBW6KrQ9MrQuT6YP3cTW2NRpNZHXE/We/ml1XX9/Zl13bjT1HLHEOgLtT0VZMANnUBLn5muTuXeHFbES6SeTWEMO0CxZ4qoFan097fInc9P6CpbomnwSheXV8fxCrU3ZY+omc3p4s03+7TD6tBMq5XaBx2aZt5Df+087DggW0Rza7vJcUR+fLGhaTYTR/jrmtdtVluB2joa/qDQRtjn8znarpRrXvBJbWI3ZEhNJL5w1CCw+HMJl/3ohgJhHtvJrv7aT7KueioZrPF9r6MgmgXGzqXwmq2IW62AweJgAcYOFKtYeKEXAN4cQHirndWCiqCJXO622NrnucjjPKNNt2zZ6Ww1OGn4h5h6rPFr4IKX/QwTv6/t26/NYy8vg0xQWIEUw7JGhNgFhVlk2p3q2oOc4defSur57Zi28EHukLS1zTwsxcPH8wjByDa3BR2UcFj6Uf1hqp4nVsAtpd9Uz1b5AHPKX+3frdtrsYoBRIL4SgTnmKMwXiacLamcndc9aRY9ifdcQ/uAa0UbOy0mPgfAKimHqEzqMdrl+KqfZfh23pEugjJDTAHF82zjaKtdralcmoQsLWV2A2zQNB3udgdpDd8bLnweyUNIQ1sahSbkWPmwRGtcWw9eIOGjUPsLVwRqd7vb0KwDxy/WqmsmCksm8CqSXNggQkgGA8Kp6CZ7LofH2prFgU1O6mMC70HQg6u7WAQG1Y5KocZ1/2Fym4X5UoFCMre11JYFrHvSX7g3Q+El9fnZK/2bvbv2Z4wDcx2It6gmKZMt/nHGM+qR1NJbTHWj+vz5xVt9er+ihdl9nUDYt9wpAoUPBKsGSCAW14TR4PlIh0PAn/MKnInkdZv+Lk1P6dwf36Su753QRMUihsaGk+WThR81HvMZpogzPwpp/XV7XU/CoaqtCHk7OlsfW+3zSjgOC2ZHFTz2YiekTk1ntwu9M4Y7Y3fE3C8L4LQTBPUXxVlWFWFsXFPK6YnEX+2mpjYh2WmrzjOfEhjWMXE1+HAM4KLMGcsOH3iWnEzShN3Q+jdzG7G9y3+lOTy9sbGqt0VWawHJ6elq5TNreLlDo4onxLOn6M1IlnruAIPWCclFz2ayWHIQDKMck/I96SCx4ADE0us3Tq8hli3ain9GvowH3UfkD41cD/K/uX8QKLOqmXFILBMGZTiMMQfeSKR2DGT60U3lVM3kdzxT1d88f03fOrOi+VlfHuVbHRem694fANoGScX9PJP7OMCqnFYmD6lDWYbn8TiJD+rP8fgI+fH3vHlyyOX041tX05qoyXoQ59NhFVjmeyKK4yrieRT3U6Otbx8/ovmpdJ0mzDePMgeh9TJRvoNdTBO8xOffzlPXrk79//EWC5f/L3gVd0a/hgzbDgDg3UIyGbCGgXZgf77cQEFyfVFqDbBnmIoCo4Acw//+8vKYHO10do8EbuE8DhNWbq+s1T+0Hu/ZBSMNZbASnhk5N2I9kFe3HmYO4ArfghnwaTXx9NqE53I84m31pT2xvk1aboDqXpUS4AS+04vrJmVX94OwaLkhbS6TVoXzy4DWvHIoARh/lGzUACThPC5HBmvC4ICBL/DGN4B3Gx//jA4u6Yaqki7FA0+2GUgheD8toS5ZE68aSGdyNjCqJnJ5p9fSjpSX9iFjgCGXcIIewqEEQ6vCOnH8oipCprYJ/ogC8y4HfEnu+gcdfBXcVwZ0BOJel47plpqwvLizoEJYoQ/vIwyhwXWPEGiHsJVbrZXKqpCb0ZK2nfz1+Sv+8saHnqK+XjfQQ90hBOU8ypkxUMViGcxSV8xz52vbr7y7tOItgSlGqSxCom9Cu84O2kghN4JSZh7/bdXcdvnsaAUzCxL6/cNnqKMvvJM9eMFEIE/ntLoXZN20sCponamCYPtRGKOchf0k3HDhuiIQiXOK0u11b3O9+71PNto4RP9TsprlHBAuQIaj3qg8W6iRuk7/TnGw1NYEg7cNfPjhZDJo8hUC5nB6h6TVYg7A7T2dCvYI1cP247vFQeYA/jYBfBDP+AKXwvzmwV5+bntQlCGO5WlEifMjDL6qAst1AD41O5fQ8wvgDlMB/On5S36vUgvCtOQ6w8CFY2KOwRRyIqh2yJX8LcZi9R9n9csAulodoTwOkw2Rx+8ykvrxnQbfNTuhAr6FsYw1lVI8mtsGjWN8z1crayJb0TCemHxCM//2J0/pxlbgLJVbnxtGHEJ27y+C8vfeb5HOvdf69oahUO4yw+PieJf23Q4uQ6TcC6zqxlDaTWZ2qtsFDWfPptAqeNNJvB90WRkoiKH4J4BGT692Untro6r5KXXdUVvUrrq3BeY9F8tKFNssWYC8HHzXLObJYcBFB6UcuGY3oF24ZhNkf5Lsik9Rtu2f18SIaGk1c6qAVhxbCirVN4BqnfH3ckNMIhfvOfxi+UNnQs8hubeCyesiC4wi/t7Btcn4xTVKmw1iO6wDzJxcm9OFiWvu4msa3jhvYXA+KwS87CPQ7uClHiaweWK3onpUN3dto6Xku182PALYo7bD6x1DrbokYO9b4BqXtZA/e9JKUnTKVeewAdf9QPqfPzM7oEyimRVsBLEAbdyweJxBGURnE/iBjY1DQqUEmzFP46cqKHqrXdZRrHqJttPTMGw+5oCxR3lFZgjLwz7BsEfncVikhX9t+/d2lnWkRaLsti4Dwxq354EEHn/dJ7Ps/nVrV/bWW1nAXEjRSLus+f381329L7aPCdzSqV9JewM/aX0prbyalCfPfs9PcRUp6Fu4wd/lV/B01gd0U7zi9aPPIeoQYjb3UJn6oN3W8EcJmxbAQSdynNIJjoXbvi+dOJzp1lRDY3dmULsrldFFxApeqq36rjZtCtEELhI9rsJ+hvPvJx/X+yvy8vrAwo48UU9rVqSlVrwZ5jtk9pMAuTwugnYyn9WCjo787uap/IRB9iP3jiHbdX8dEqA1vB8MjEIyq6t/oul01a2rzAsbjKLpb9iD5fHairK8szOqPd83qemKTXQTDSeIyC7O/N2rBTQD0Nm7pywDxrkpL/3BmTd89CwhaLZ2CL02stl+0+e1yCPAMSBcg4vBwey16o2vvPu1gIOSCQMzBvFgYr4IQZot6upPW95Y3dVetoacbDS1jEbpo7nI+ryJBqns0ugiqyS9xaAqV0c4XFEq6rFgMApkCCD2EsU5DdmlwGwS7QOb7SFA8OtXNEAmMz4Q9hIoDANHCHTkbS+ol0nnZE4JcjkwCUOaUx0J4KLPlKuZYBg2a5vocWvdQvhyGfM8B9CTgreJKtQDvDPdemorpT7GCf4rw3YQ1OIj2LQCCsF4Q13seQoKlE3XdSGX0MDz47uk1ffPshu6uNbECMa0mEuE9rodCeEl3K4iteRShBtEWnbDgE19haX02jQs6x/ahXFZ/snsXwfBu3QS/DvTaynnFCs9X5pE2gHU8kihMqIIleGizqX88uaJvAMQ7qzW9hDXZRCl0AYEtkhWDx3DZwo7KMSzAG5Cv/7Z73j3awUDIbsUICcAQJm+kcItwMR7CT38OoXgJN+VZBODZ9brO0vC5UhG3Kqk8wuDXWhbC8LlTtHSaxphEM16Qz+oyNN1eBKrTbKnSbatGw/VDnEge5r0foQGDqxVY5BE+jh8iH9u3GDweNGahWO929TyW4df1hpYIWpNTcyrkM+QZWakYHkHQ5Lg7DpIX8nFdXs7pCizEYq+jRYLpT5Uz+quDuwlCZ3UJwC001ol7NtT2xBaej3fJGxfI3Y6Ptrr6zkpF/xFX645qnbigrw3SDy+oEDb3iCWpq1ePiFwhl/hVIAib76d2lGkaHn8Unv/5rt363x7cp9sm8zoIALONCghshjAkPI0pjSP8zcyEniAQ/sbxM/rr0y5Hk6C8T6BOsA2gg74gKk54M9/MUyfhVJz3sEym0ETD/VfSqMTe3lvaeUCAP546fAla6ZPBIrRhol0jmAkQmliFXyAEz2Nlq4ls6ApcQtk8u7mhl86uKZHJaHpiQnl8eGsvC6x7ixLuY/d6nWjmGWp94ey09qJZ81xfQYjrHawEQhOx3KY8AkHo8vSZ0FjuLo3ucTM6TvWerUOF86cQ+mfWK3r2zBlliwUVy2UVcYWSfl2LMHcATK22TpyxiaDXtIvnriIAvWlxWrcuTAOAgYqVDSURvkQf4QM3cWveeAGgFrWOtXkAd+wbp87q2yvregqNexZweVxQ5OZQmgAExz1R2Xzeu6Mt3GSiEh4ynQ9u0EC3l8r6N4cu0Bd2zxCQNzRRXSfAdxn8bqYDH7EwxSn1irNayU3oruUN/d3Lx/V9AvInsWgrVgoGOhS5YQaYNysPZxv9c8Zb4ByWJZSbzWfPF53v/H+TKFGWYPRPpif1f9u3qMO9CkEowgFD+zTA/bW+/ocjp3UHQNi0pAxNvzWgP566m+evK+Z0+545XT+R1YFYS7lmLcQGfhtqrd/ivhYIyaZK6hYmde/aun50ekV3Y1leJJ8N0u2iqb3uvwNav0Sz1rRImWGBAtf8XbJI0IKWQ5A9DDlLeWbQ3B+dKusPHFAXMjqIe1doeT2grgY9f8CKdOM5Hkw7SOCX82qrQ17+HoHdGrsfvVRZG72Unu6n9P888iJAwPrxdJ27LZxhMKFT2yoY+5yIhI7rADnhdx/wx92sdh2jN/QD7YUXH0Hh/NGeed0yO6mFGExtVlUnfulyTy4NuPxGnzQGWIDTibzuXq3rBwD9vnpNpymjPyHl4ju7EDSHvIebC2XGhP+RdYrKhVJgi7pQ/YzPUx+28yWMO9IieHyPLcLNEyXNYhEcnAUNh0U4hmm+b62ql9Cw7n8I4SvP+K2zXYMNWHkcoT+Km7Lhdw/ZvDL4skm0VdxWgespTE7KrgP+udf0351GUIkfdqXSYcFhf2g7tB+uM84V1oHMaSy7RpF9iMiwiJrVN3MLf9w96PFLXgTxBDHMkdUNrbaBHi5bYXJKaXx7f+mnTxzjZOOO2rFGYew3Ll3cfiH3dFMFraeIidpxffvEWf31sWP6Je7R6UQmgMDLJW5Nign70W9wQXDrrIddWpephzC7+9gz80r87iOLjxWS+qPZkr52YK8+Qmwz3dxUsr5BgN+I3iZQlh5uzQArsFqc1CPNnv75xIq+AwgebHV0kpT95jzka3K+IVf/Qi4bhelhFjyRyQIeFTF6wM0ZurG3I/g80o4EQhIGXQoQbgEIIVh2jGBO4tcf6wx0P0A4AhBa9n3scwzZ6zekbpgGtTpF/PDrzbp+vd7Uci+prINpBD2LwMXxsd1osWxanU5L6R5BIkDxRJxLAIQH0vnbwrYKdQTHPUVRi/MUP95F1sCG9ZjPu0F90zmKpzyjTcQufR1tNPUSwKw4csGdKyDkGXcp4lI4vfDijHKFET6Asor791wvoe8tbervT57VP2IFHuPGKvV1T03IkT9BwMJBtJkbtpwhvnEBKZ3BEk/EwnuMWbars0n94WxRX99T0hdm8roQicw2/cKSWAYrFmY9AIJEOqdGuqwnql19G1fs7yjHDzYrOgI4/D7AAwyDdLNtFYE/Iz44+xB3DY9Hd0W6P+JXBIIhNHzs3/NEOxMIMOhSgtpbCGpnAUGwCOZS8vWBEDE0ahUz2l2BDQ7PIsxH8GNfqNa0ifbNZUsq5IoE5GhlBDR8UwFrYmvh9f7n0I6HygUdLmY0h0loEZzjrahNw3vYsC1PiDtI2xbBxfJmKXApbHEikLCFeykHz5/FSr3odwibNQQJ6SOgzCKUWQTVbtAAS9AgeH6JeOLHqxX9r6eW9X3ijaewFiuk6pGhnl4UPsIX5Uh+FvpI90e505wDd4P6fQBlTUX3z+IGXUV+txMAf5kY4LOzZV2GsJfR7H6H0scNskOf4FwMHm8mcnqedP6JOOA/nVnWD9er+nWnp1XS9fI53aE7auFxrt4s1KMtkH/dPpQvCehdxpHisEs0AkxEUX1CQueJdqhFiAOE/DYgtEKDC5/ZrtFrASE0gLUfPPWaqeELj6TToYE3EYZjCOJLlbrOVJucSylLcFhA66URBK95ZKsTG5BPD18ed2wxmQqD6PYRQ5QRgGarBbB6uGPkSL7k5NJu0UgUo0k03kO7cp/LYTD4g4arPH8ct+vlWl1LrRpp9VTIYh1yBS1RxodqVf3D8RX909kN/QyQniCVKnkbVV42MUyQNxgsTq4naYdvPbiuLo9dLjR68M1JG71NQB7TH8xN6Kvzk/rSXFkfxhAt4BJmmoCxB7hI2+6frWMbN/IoPtddy5v6JjHT3+PWPeThIZS/Cc/CEBfqYH8/qr0FewQCH0b1DnU3qPhNYoUKANGBuQEfXDrKFN3LD+cCu6LDc7/vM+1QINgi5MJMqyhGMBBgYDKt42jI+9FQv+ka+V8knqO+fjeStY0PuwhLRWm9hBZ8fH0zaOcOrpYn8pdzWIROTR2v50mA6EF9FuI8YNiPZbpiekqHcNWy+NrNMNSaBvWKD5bGKJOQe2h6lwkARg1tm4HLEbR4P2jpsKAxzx9pdPXkRgu3aaAXW9IdKxWEbz28D3iB2MZzyVxui7gHGNrFCcSPU7awBwFE3EczycB/uD+Pxt5P8H0rZf63B/bozxdndV02od0IcYq4ZYDbNwpQY2kSJJhehjf3brb0/yMe+fuVTd3fbIVguIXb5vjG6YeZewYN+XtUrbeg3fkNjA8Fi8rmNiyQ335OHMYyLuAiehZdnesdXDXXw+RHoj9DGp5/v2lHAsHj/y8pZHXTZFEzHi3vbjw45G92ncAiPAAQXiYGaAbhCGFXeDT0tPgIYYu6PaPGNg36nkmFf0ucsMzxS2jlo2vrquA6Tc5OKT85ieeVR/kizmArBuA8TTOGSzVBeTx+6YKpkspYGM9/WHcvFALtPELvB8IYujDZ/C/K25rTwsN+KIaFN4XLgv+NcK1w7cVaQ48BzEcAgMcFrfvJTEpJL60IIPy8AWF3zHWzQggTi1xHXw11te7tKI/VmAIEV6aT+uqeRf3bQxfoJlyu3c1K6DmLexgI9XVhvHTLIJdXA8v4PPHI94+t6G+On9V98PVoJonScPWCpJt5PGJQR0Ablce/oVSuP1fCCcrnjggvIHYRZz+/MK+vX3JYH5vKawKr6yX+KzRZiLugURLnm3YcEMyTEgHj4Xxa104mNTWo4r4QI7gJAMIqBuII2vwUje6pmhZAT1axhARho/GiaSXoaE44gI76s4egQEv10ZZtGmsJwfsVrtKTG3Utd1LKZKZUVk5ZtHUQZlwxA6NL/DBoVzSd6umKmZI+OlHURTR6HLC0ue5FiXspfI6tfnSDEyHmniS7I+ENMYUr6G5MDwUhf48G9RcG/CHvMFSbulj7e1xOELZQl8jFigFmChW2MFIUTcsO6XdCb9Cl6ZS+PDutf7d/n744VdaBdl1Zj9OKI/xssRjAJlYQLl8bl+zlfkp/e6Ki/+nosr67QRxAGqvk2KFc5mUoN8feD7yFQuwxlHn+c8+wfLhl7g3zcPSrAdmXpsv6P1x4gb48N6OrsIiXJWO6dmG3miijYyiXCkBxWk4jApJtKn9Jzoev3t5r2nFAcIHyNPglmaxuwCIsILQeEmFGe5WGUr6gadyZAoIdjehEGGE+DkgQtCBsoWFGrlKkyUJjsmP/2o1oIeuw1Ti/TIscQRBeRjO3AFZ2cgqXKUP6DqQReCPJPd/dpjL4zIto60tnZsJE/iLS0sdy9DtdQENZnLZlw/nxj5JwYOK+CBHbykN52TwWJ1iVYZnD9bANhSOgJ+oKtQUI7ghwT/exZtTc45NumyroTxdm9IVdc7o8NVCpWUX26xp0GwAZRZJCJaSyqifyOgkAfnxmXX977LT+ZXVTT2BllyhQy1NdcYXCSzBbOysaKBTbedr6uIeL8kYUgSALIL1wwGFcuFuLBX3twKJun5nSFfB+orGueBM7166GF3NPrjf0VN2fjnK84OehkFxU1y3Evc+044BgwcmiZS7NFHTj9GRYpDaBQEZaMBbG7OymMa6cmtGhdAENpPA1HGsYv5KK2AhLLVRB2iLBHwl/EDP+nyP3+yfCukcv4js/U93UsWY9DL3OFbwynvv9rbnR4NztoR4J3Ics8cTBYkIXF1LahwCVKEOn3cG374f3GUGGyDTka7BYmmj3oEADuRCvKEgg++7hVrYo3Iwoigei9DwytAAQDsGHT09M6qto3a/tntcnsKK7ew0lED5162YBFiADkOMIeUanYwU9SPDxndOb+uuzm7qr09Mp6lZHY4f5x6QfLYnJ5gpwyvlF5bQLRmkcjwyBYP3gCUOLHH6ylNdf7Z7T14lHPkx+ezw+yXOmsUJEzPhLPW3glj5SJUYDCGHOMs85pWiL0hwDYYsQNARrvpTRBdN5zbLvsfleFyfWIchDe3kQVx6G7SKOOERAfYCAdprGaSGIXvsIRybMh/XCwMGHJs2tno0hw8Nb0HDEX7SfuzotwOsI9FHcpedrNZ0kYIyl8srgkuUoB46SkrZObkGe63dryse72pPP6yCWahfBdx7g9giom5SDGDjS9qEczjXAcChdo+0cWQbCbDlOWxwMf7tJXpnbLpN9da+mYcH7OCD9o7k5/SkAuAVrsBfNnw4D4+pKcK8Dfvci+XvIp+Mp/dLjk5Y39A+nV3XPZl0vUaCaR4Y645Avm/kMLww+bxYO/wa7SnoDp+kb+ygC7tvL+RuzWf3JwrT+FADcWM5qgTgk026QDq6Ya2BXzxXi3k6qoMc8eR/Xdpm6uAfJLBi1RKAxEIYEPwYIXZO4oO7PlXJiLltWIYlp9wA0Gi9oJY/o5HiatrkATXjppD80iJ9Ks9VxUzy5M3r7OmxWMzgw/Rx535vvsAZ0E9jtaNBwZxCKFwhgX0Zo6q1emHlW9ppG5OAg0nMUPGXTE9093NuLCFyQK+hANqUp3JBmEzAAKne3Rq4MzU0eUf6jnKOjEfnIsYx3gh9uIXIL+TnKY//7MgLhP5iZ1p/txf3ADz88aKtoAHSINIibQmWSaVR1UfV0Xs+h3f/l1Iq+iSv0w1pdTyOAK/Cwi4X1dAaXLHCIbL1ZKKN/UVI+0zOgzHcoQR4FynJVJq8vzMzpLwHibaU0MVNDeU8YIhh3KOMtLDtjRWRw80w/ldMjGy09VhsCIQAkyjNUOhy4Fd5/2pFASOcy2vQLqM0mvntHGwSyYYmVQknZHMz1Wj00ZYgV0TxJfPQSrXgJgnFxMa/dACKLADSwEDXE1a/5R2lb2gPbtzW639AGKQgXo19P3MGw6zhpPFmvYSGaatCQKTRxOuvu1roySGmyj8tmLYoA5EhjVy76kOHFxZwWPbYJq+K5y2GFDdKOXKMo36gk5yg6YzeKErhlXB7qkeLEhfGM/nx+Xn+JG2QNfC0+yVRjI3xe1x1k4dk4ZYl7CfeCXoyn9f21Tf0H4oB/3qjpSdygZQTf83o8KtVjp2JY2bD4mcsFWG21qEogQ9YdpR6m7pWTbKmmiaWuIcj+7MREGKH6xdkJXZLoqVBbpw2aWKI49wV0AaJoXT77Z54bboveJph/eNMfE2zoLOl59K7pFbwI/H//yezeYa4RjUGjeQlDT+pY6cb1bGVdL21U1EbTZst5FRH2FBIVQ8BGL3g8CSaDT7oIiC6ZntEcWrHfaKjR6qiDMHliu3vzI0ZHTI/cJfu+4XCrOcLGSV/vIcxVfNsTAPOp5WWdqBKEFjKampzASk0gUKlhGRAsgtJEva4sMcYijX6oVNKM32B3+mqgSfGqgl8cTVeMtqCJLYjDskU2w8FqHzBLczzzURTAV/fu0X++f78+luxrtrWOG7QOAB0EJwlCyd8gyJdUwXr+otLSf3zxZf3t0qoe6nbDMjXhvQRWLEF9/aFAx08hdiG7qP5R3lEsYp7AVcpp3Oao3z6493Gs4h8vzOore3exL80CRC8glqRd4igfJ+PPRnUSWdK1xQlOFScpX6yjNm3ysNc+rXlZ+J0FhFD2aPf8k3smLBg2wmZOJOKmvpIwqMTejWihz+Ia3IxwHMA1ynstz0FTXVyEVmi2uLKprGLpktYTOf3izJruWDqrO5t+U9vXptOlgZEFau77RywIJ841xPAnukq52PELIX++doHHPjY1pa/tPaCrcM3mcIBSbVJGKzoZfx43BlhiNHx7kNfRdlwPVOv69tkl3duo6yxpWTNbW0ZA4BerFYZGtPtYmph2oamvyaV06+ykbp2f1cUAK0XcEus31XOdsYQeFRpD8DuYj0o6rccqNf3ryRXdXWnoecqBw2R4ku6wnqTpzaNbR26ageAqh6EWnBm4G9jKgXgsxflZKn51JqMv7NqlT8+WddCjeTtV9fyOBSaG2W++H5534XdlkNQxYqwpFNIu2iWF5Yy+6t9TPVvU/+d4Rf/L2Q39GvB6LFbgc0AiLe6CvA4QKO5Wm7wXtKMsQtTlGRXKTWcdZXeiByO7nHR//Yl6Wy+tV3W63tKAIDWDdUjjn2fR2p40YmH1zC8Ha1me30MQexgLsZDmGhq028IVQFDdBxS65Ul7q6eGzJ1vEBvvs9mrCmVh32ONPOJyjVJ6dOtRrMM6VilO3hnKkEYb4ikEX73vF1fdTpgHMZWKh8B+L27TbgR20MYl4TmnaT/ZM+wGmIs0lnCGcl1NnPHFuVl9bf+eMFNtb7uijCfKe+1Sr57BPTELXqqojWROLwK4bx47pX84tax76h29ADA2HAhTiUjbw9ctITonUf4bnfd9QXeDjK6yWBEv2XJtHgvglev27NIn8gnt6W4q08ESIdweNRuPpdAlScqR01o8r0dqnpe9pp+fXSGMi2t3zoMcST34WwN1KOcvcY0e9YdC3AahbCbvGAjD3fNAOw4IJjeINzfiVrOFP8gBgcEZDp5tNghma1qHoSmEoohvXIqlwwssv9DqYS3afqFEGvNI8+FiQhdkEpowwxE6r53aRgq6lnR+HaQm0IrRag7nWsNGw0cWGIPFZB++SSB7BGF+qlINL/hwEJTLFFQwKBK4CmhwK+IwVxcAFuD0Aa5dVZzQ4Yx7udDWAKaOZiSOVJm0L6L+n5su6eu7iANmZnQ5cC02N3m+CW8MbrSw0ZnKq54s6kgnoe+dXdPfHD+tb2MFHsWNXPOaRgAhgNv2AE0cDc8w4IdAN19DpQwQi0A0ONDRwATPXZZJ67OTJf0Xe2b0hYmcrk7GNN1tEgc1sLq4mjyXSuQ1wOpWiF2ONGO6Z7Wm/3RmlXhkU0ukuN8LngH8EgrBriOFV5P6P7QZLQtv1+gcECIazRE/H7SjgGAKsmZAuLGGx2F2WjhtrYGQsfnD4Sv47S/jcry0WdMqvE4VS1iHrLLJLJrZWp7GR3r7fcx8r6n5XBK/Pa9DWJLdBN+xVldN/PfwZtjm3W+Sccx4jF/+cT740OTt/M2sUTuF9T8Bpb/IebqNlarVdcJLT5JOMpdTmtjCX+LxFlwfJ4I7kUKgduc8ZCOnPdm0Zjpd7WX7CMH1HwKAL+2e1YfwTqZbm0rggnjVbU88deet5ynUcwUdQbP+dLOufzy9on8mIH4UMC1TMg+z84inAOoAgqgORkBgacRWfglqk9STI7tDVhxFtosySX0KAHx1YUZ/Sjk8YnWSYDzewhL5k7LkYGtk61HFCrxIO/ys2tE/nvVK2uv6ZaejFa5bEVwLEK6ifsXhgEYzoAl//eX96NNRBgKFCwx1u8KgEXPPA+04IJhGlmFEPgrCxJ41dtKamyNbhzUYeKzVxjogiI2mavg7mWxJObRmFsEZoPE71qRYgGS7pUkHfvmsLi2XCGhxZ0hvgwasOKAmVYuQZdbDl4P0DovidvKh5SoQDenR1BYmD01e4b4XCM49zPokvnq2VFS+WIgm4mBC4k4fC9BDsLNqajIT0wH86KsBzScQvo/hf19Tzmp/q6m8xwTFvBSW31YjJKkyMceMzqDtf+FYAwB8Z7miuxstvcRdVXezwhO/t/IoT1sC29TwDsJFDWCI6uDy+oR/vXKGV+nbxfWPU9YvLc6HpRtvLKS1t1FVhrK6E2D0Wd84wp/MFVVN5/RAranv4AZ9Z2lTP290AUVS1SRQwQKVEfCPTBR0Fdgt9D2AxO8UsObEEI+EXqPohZpdNxfMf6MChp3zQjsKCOaD28ymO/AEIfCOf6JFuaw5uAOJ9Own93oEPxhNWMPOPktA/GilgnZuqIv7kc3mlSPFLNfCSnAIvl0Lj6C0q7IfC3HN7JQWyaqEVvZMLg+1DkGc8xniIJTJp9hsIUL3Jr+R5g2iFqZCet3UDaTthWZbj25UdIr0egiNv9tWxGdPdqOxR2ESDM9mSD8/6KpM/DLFlgqrV5Mm6URTN9OK56bDynVPU4K/PnFC31he0z1o1aP4U16WMrynIC2XMPT0UK4uCA2LmQ3LOiKXOfwaLAjuXCKtG1AKf74wq79cnNOt5YwOEeDmGhWuk38MIFCUeBwuZqaJA4q6b6Opb+AC/fWZTf2MmOA4GXiYSpf6B+UBECbh8Yemsrqi0FdeDcrhF3VwnXQMhEdRWOeAEPE10NbO+087DgjeguCzF/4hkG7g0TULqHWe1Vv4IIh7aDjuxdP47Vlt8PCRZl1HNtfDChNpfPKJ0rSy9psRUM89kMfeAIZUp6WJXk+Hy5O6dGYujF+qo9Xr1tw0rIHgXJ1/lDsb+Y4EamQhgqyhlR3Y4wTgvxPHAKznN+p6eb2iGD73RJlyAM7QI2aQIcgOqr04WTQPouPPMKhF3FHn2iCdV6I0q7VUQT88dUb//oUj+h6xyNOUZXmQxKaQEgVxb5q/hRy9vHKR++FdgMsctL7zikoYyGUuUs+D3P+JQkH/2aH9un0iq4sHdU34+8oe6RvqR+xiMOHO9ADBkV5W3z+1or+jLD9A0TwPSFfIMMydBrR2xSIg4NaR94emU7oy73FjjpGsNDy5KBtco0fh8RgIv4WGssd/j7SxH2vtSIMjmEmOrP0t+H4ratfETezG79kn9twFfrtxfGYE/LHNih5AMx8lON41NasCT9p3N5TU6YWvJzXbeNYI8QL+8IcmcU9wU4oeN8RFT9NsJT3jiyeCf+EBaS5XKBJC5aDUWjjSvqZolCgCiBB5yuhJ8n50dUNPra2qhpuWxyXLc48nrHgKpcU1vHiyKBGvZFPUr1jUEoH3netV/X+ffUl/s7Kmh5DusxShbSFHiDxy1fU2L/zyL7hQnLfFCV9H9ttgc8yyieY3WAo8f5jfL05N639/4SH9m3279WF4Nd3BAnQ2iemr8MVzFUjLC3elC3pxkNX31hv6fx0/rr9fX9VTuJirlNULIHgVQCob3E+/tHTcbTYYCNdNZXRlNqWJDi2IRfYswDpu4kMhRhgD4beTmRFUEluQNlovbDDc5heG+tqQh+xaCJEOm18L+FAo3S3pN8OnCFCPbGzodL0eAtkU8YM/E5VMZZXEiqQR9PA9gE4j9HnPpuI6hH+7Cy2eJf8ucYVfWHn8kt0MT4IxMDwLzsOsQzHI00UIFsJAcDG43+5cDzfHSy+ebvV0pFbTCdy3AXFBPJ9RNp9GVJ2WgZNSiyD+DG7U/et1fePlU/oOLsj97Y6OUtka29b7gEBkEshl4PnhaQPD68D4ZZVnnxkApV5LB+DdDaT/tT2L+pOFOX0kE9dcY12J6jLCDwBsXdH+wgI1AcBquqh7CYT/aYlA+OyqHmq0w2emGpTTQ0bcGxXWXY0qG22QsTFNOT88USRGyKoMuA0EW8EGPH+40tQTAQjuoIgeGtXo3M77TzsTCGZQ+G9/GdvgLk6E1Y3t3prI5AeLG4Se/xCC5+ve9TkLDc+6hv4s6nMEoU/ab2+QDoF0mkbJIzRpbo9w10WzNmm0pmZI4IJCUdcuLGjWSQCEBoLkiUA9nOa+VR8CPyyJRY9sLILngBGuUbh4zyxGyAHcaUr8DEB4tl7VWbsMaX80EUDYpUuk9ChC/63TG/rOSlU/rrb0LE+uYyGQ5qiyo8q9ikK9qWP0lhxfnLL6rUCaxyYHHV1fSOlPsHb/GfXxV4j2AYy0h0YPCGTjWACK6ElPvfSE1mJFPVJr6V/WKvrr40v6IcH/i+Tt9UuDAiBdL7hm4ET1jIQ/zAqkbCni6olEUtdOTgYgTAAEX7cyaybTxHAAAdfKo31Hw7C3avSbVXvfaGcCAS1qf7kI0w8k4zrIfgZ3xfhow9Sg+/GTXXwLoAPW0E06ZGTQzLgO3sIpANGNpbTBsx5R+lINQSSQTeaLKrNlQ1cncUMf94q03MiewTiVTOlgLqMLC3nNO9ht4kth6ltc89cmwxxiWyr2zwXXllYA4zZ2gTm0E2NhswvRIu3VZk/HEbYjFohOHO2Y030Ent88fVY/RAB/3e5qlUet1Z2Ehyp40J0r49QDbe1ARrJHhsIrB6tZgDuH4vhQPqXPzU/qq4uzunUip0PYtYxdoH4VHrmuLjD1QClUUkU9Xuvq+2fX9a3ldcqxqefh+aatmq0wdYyGkkSjSkdKx0JuIfISly6fA5Qy/LxmZkJXY/HKXS8Q4LIT2MPP6DvLUbB8DgguB9sQTL+5Qdvr+x7QzgMC5HWNZuHRh8pZfWHXvD47P6c9FvRGS1UEwu8Q3A8UxwUIrEKbm1PbgWAj4sqZ1fAcPvulUUI10j7VbelF3JTjm5vaJM1UNhM+AJJJRYPLwkOkHCOOyAOYBfzti0uTuqg4qQnSqbZws9DoHQeUgMzja5y2e29sCUw2BGFMkbWm3Q4EL4zr4L974zf7CZ1EW75Qa+sxguqfbdb1CMG844Amz4U1Q6mnxwVFs+u207ajsBsdW0ALgOAinv/c3KT+4oK9+vzchK7kyix1ThEQd2NNte3WEDd46cY+buLx4YT9fzy9qu9vVvUI8ctpLFhYQjKk6zoZBKh79gMIfInN8hvYxb1hxCxlnUWRXQ8QrsomlG8TfGOh3CXexurYNXolEM5Z0ZDga9LrnX/3aMcBwVW2u3IjAd1/eeiQvkDwem06piuKOV01N6N0rR4COnRxeDPcRiW57xodFTWO+ekGYbNPH62aEG2+bJC4q6+GdjuNkP8aQDxHUF1Fi5XLEyoiIEkEdND2l3c8ahSLA0DyIGt3JqFLJkq6BLdpkiC4xj3+VgK3k20kLh7ZSVbh2DmGv27k6DBqb8jBbdegwn8+28MCIPD+5kIvgJo07Hpxj9PyQ8PHAm3BYpimLZiXhbkQwfrC5JT+8/179NU987o81tF0q6a0tbK1OXVIELCmkiWeKekszuGduGH/ARfob9aqug9LdJyM3PPltymR5jdfh7yFImeIutpauVpsLlsYWUv6hB66GAvy6cmirsjElPOCCKTjr++EL+8TLD9WAwg8s90iRNswk/NAOw4ILtBsNqtr0hl9oVzUBQR0ufUlTcBML8J15e55zadS6jYbqqHlWmjAMLJ0SyjM0lFj0TjRbrgUDT92o8Rxbax5B1olQy/1cmSjphU0Vb5Q1kzZUzWzQQd6ufQB2j/Rb+BW1FTut3Uol9dVBJ1p+wW4VL0wIcgLpRuUI6ElYaQnHA3L5t4YUyRAbvboXW3Hrgdujd+A2/0IAKDgEQzYwvNRuuQ4TN/Pe4DeIHwQ5SO5hL6C8HsF6xtw5+aalbCAr4eoW497cpDXUVWiSLwyoWdaMX372Cn93Zkl3Q2gXyb9egb3CtCnyD9Futbuw6zYhnwFvAMs5NAOhML4g+MeoJcnI8/l/vLuOd2ENZ9pbirVcXcsF7EYDZTMQ0OLsGLWhTo4edokJBb9PR+044BgVvjbAheVcrputqQZf9IVAXGj+NsDpW5TV3DtY7OTOpROwOhu+M5xBV737SMH1Y/bFGIEUhs2prtbTWa5rYczGn1Fvs39qzznubS/XFrWsQZBc7agmWJBJaxNplfHB24Tr1MOxxLkWQIQ1yzk9OGZgnaTXM/Wg8buYL3aFMGTd0LwCti8OcPQy8RmaY60+qg0WAEC0NATw63ulvWwCtcjCoC5y7cbDFxP4IqlcT8mePKabEpfnS/rv75oUZ8uJLTYrytLeQcGgN9VIPx+xiDw+KSnAMA3Xz6l//HoUX2rUdMR8q9Sbsc8YV6Fh7ZTvgC4kGfINmw+4SEoBkF4h8MznoPgDoWPYlH/630L+j9fuE+fQYHtAdDpga1BR2FC1aClNrHWLyqeodbSOmlZCUQTkbxFeQ3/vO+044Bgcj/4Ahr50qkJLbgbE94kcEX6WIEETE3go5dh4N5iUYe4J+cXUGwWRq/A0LXA8Eww337WfPbOkNvhL+cinWbLgaChldsE1G4gL8D1Yr2u49Uq8UNWmWRaaYTS00Q91CNybdtKdmuaJrGLiB8OT0zgn5NWva02Eb1Xxuu61yr42UMAOEd+/fjojbTJ4jVyn6JrtgZ2TrAS5Od4w332QRlw2wzPHk4l9JmZkv7s4C7dxu8FrYZK9Yri/PojgaG+1KkbT6tVnNGLnYR+dGZF3zxxSv9aISAnn02CV4MX7ywUxXgNmIVGy0kGwJJWKAtbcGC4VkjGwsvISwDk7bPT+ureBd2UT+iCXkO5pj9yXsfCObCmJkmsa3FKaxOz4XNSj8PfDdrJWYWYClBZf0VZuzDvP+1AINgnx49lbwJTWkQI8xZEGswGeQDzlfFQiTgAGGhPJqdDhZwuQQuVsCReAn4Df9ta2RTkixa1sIe0OXalfRQMBjcE3YSQxQd+CZXRJpL+bKupX9UbWrKmRxILqbIKmVL4Kg5qk2dt2BFZhD5PmfZR5mtKZR1KxVUk3Rp+f400IyGL3ByXwW9fnYvLEBXRNwx/2EI3rCUQIbY18NtdxXtYpIFyCM9BhPfWckl/sTinP1uc1keSXe1C+NxtmYRfYWkbWxFcnBZ8OzNI6Z7lmv7xxJL+cXVN92MpTmA5u/jr/n5BeDfjR4ZF8J9RXBBeJKIAQkdAKFkE4CyW6yAVuBmL+Re7FvSVuVldl0vhohmEDdJskw78pKzxzISaiUk9V4/pjjMb+uHyml7EFfVXNf3P4h/yc96BQined9p5QAiaLK4aDXaqWtGxWlXraLhkNqMivnl4BYWAYW9hOH45cYInzBsQF5Xz2pMHOCQzgNlecdpTJLsZL1cYsTiap+t8hg2OoPnY8uYFdANewhl/+3KgEx7YVm3oJKBocjrtJVyyeSV7+NzuyyV96/Y+YHBUsZCP6cKJnA6mvaAV/n/LAXUPa2MQRM1t18M61kdR7kPyLift04fJQy4bdctS/72A4IZSUV/2RPm5aX08lwQAuI1oX3ev+k255wDEElm1U0WdjGV133pD3zm7rm8sndV9WIoTJO6V5sKLucDDUHLycClcmqgsAbBhz6A3XK0keiqxHcL1uz6f0V/uW9SXKMt1WIH5NgE58YDnMw/sWnF/Iu35EiWd7Kd1/3pL3zyzSlmW9TSBe5VsRtY6ytHH/sP/KGOu+cT2bXjhPaL3Poe3QFujTs17hMYWoEDp9uCH3jxd1m3TU2ienBbRSIk2fjB+Og4TLgta1H13CHw1l9VLqOH7ltb1s6U1/YxA9hQa0G8xPSHH8e2o0iGwZfOxzyeHmtt3WESAWnBL0hzNIDSXppM0fEa3717Q9ZOTKjQ2uamljgWcFgzvIXCZglxm5gjC47pjeVV3rG/oEQBxmvMeMTsgrZCDC8Geqx1AMpIG3A0vweJhGFMA7ApA/smZGd26OKXDsY5mCW4TAMAD8+JpxwA8x/39dE4VLNpTlZbuOruin1c29StcxjNUyQMJPaAvReFsFW2pQtwxlLwwTIOCBBdlKIQxLKQtQAoXZw5QXppN6Mb5Kd1MWa5KJDXZxgJ0aQf3DLlOsTTlyKhH3OKY69nNln6+WtW9m3U9imt7Gl66y9mqw9W1pTbHXYJo4KCLE/1GsuC2iCgszR8x7D2hwIpo9/xTqHzgUPSDUmSDGTTeJNfmaOzPzhV16/SErkAovZhtAS006qP3Gp0ei+PZW/7g9kla/2en1vT9lbN6GG122nEA1Y3+RXkE2RtSMNUBKBYK8iXPoJW50T0jORqxiGBdkU3qhomCbt+zW4fIe9oWKwiFv4PAs5TTXaqJ3KRqyTxuwUD3eBUJyvEEwfYSabrXynk5NxfGQIw0sV3AgabZLsUNu4W6fmb3rC7PpvHJO0rVPTW1wwM8hPZVDycyW1I1ndav6y39bGVDd29U9Xi7qQ34AVzC4MOQE0JmwXZ9HKJb5pyMWWAgOB4JQHDV+ZNCC0xRv0uo081TJd2yUNaVJVwgT7Zp+LO/3Gefws8BWI+VqqULeo5g/8cooTvXK3qu3dMmoPFXhZrU3eolEM+OeB+ADAUX1sfeD6eGN0DvNRB2lGsUASGqvrWWGwklFl6g1TDRG1x4bqOhF9arasDYyckZTXmJ9wCeqGG9+GwSVySDCZ6llS4vT+nDe/arVt1QFb/foLIQ2MP3uKFI6KNMg6vkjfzDFpK1hHpQH1oVAanCMQ+ks9Z9aX0dBZjTbHFSpWwOn9giTMRhUKJF+w1cBoLuvVy7ZveiZghwBwT6lRB3RHULa7RSF7t77gqdIJ89pHIjgv8XB/boj3dP6/JYU+XaqhINglBA0EHI/bYhQZAeIwht5Cd0b9WflDqj766v6RHAepY4ynFKL1iARHAJnYfrZ3C7fq6z8ei/0SQZ8wPDyjNl6rDIqc9OzeqvLjioz/nFXKKnyRp1JgawG2RehmUo/U21/KRO4jI+Sr3+lxdO6F/XKnoSvp7NpNUgrQ5KK4uCCMAzY0PdI10QFNDw13su25Z3sEWhxO8ZjfLdUTSUy4hZ4ccnfCYyqSmOJzi8ppjX7Quzun2ypP21iopuIL8OQgjDs3GC6jSihSBuJDp6pLqp751a1x2bTT1H46PDacugiqO0EXdrZgtHCGk57y5NO/W+6tuCK0XaBmoK32IR4bmO2OX2Pbv0scmcDgxaytU3cNV4DmD4pV5YJhGfuR9PA+a0fo62vOPUqh5EW74Yd9dtj7hmoN1o2uszWX16flYfny9qX7KjXCf67FU0Bxot7C5i3KEG6SzhtD28WtfPAcH3Nyrh44peVMx5urDW6hHUw4mwRQPlhr00nPI8DS9MjJMVBNRd1bup4LXplP54cUYfnchrL0DNE2Mkuk2sBjGAmyPwJq0uFu80QbrfjH93aVm/APjrANHr0ra4MaxdxG8YLu+NUphGvBwdbL2zOE/kcp3fErwGjbTBbzDHp0MrRFrUvTWXojlvmJzQjQSS1+OuzCGI2S4ijtYMk+f9CMLWT8VVwUS/2E/p/s2G7lnDffD3EtBWm6TpebiW8AAEZ4sWNQUgAAM3nH3q4FezhX4f+9DcP4EYXQrYbpqa0o24EJfjOu0mVsh44S385ziuhZ9zUgOCWX8E8QXih1+sNfXj1WU9S7yzJ5vV9eWSPjs7p0MUYnJQx9v3yyi7E7YeiHMqpR4u0DqJPVPr6EF88J+ereixVkcnEex2VGQXN9TDc7BdXMdHkd9vILj40X4UEwAAAFTk/gWE9jL4eTNA9HY43lGp7W/YNXF9oi7Z0IMUS8Ivf/w9rReaXf3UbtDGph5H0DexRNb+YSI29LptGWh0bgyEN02R2+TG8741nNfAI6BEo2exAA6o/2BhLnyJ88pijuO+8h33Z1fUAxCDeA5ARGOCKmzHEJI7ltd0L37sw82OzpKae3aiF2GISlBZ7jk/BwRvgbge7gEMkWuDP40wTeHrXER88omZCfzpjK5IdbWIQGQsGGh9r/hgt8k9nB7js66snkGTn6hXtTBZ1sXlMoFwFxeopq7XLsW6eSxdzEBKIngA6CUMwwPrNd2zDADqbR2jUH4h5iHXoSmHrWkwm0smlzt89Ntlpcx+ax2NX0K7p+OaQcivhX83w7ub5qZ1aS6tSdzLBEG5Fx7ouwMA3vfNv3heTazAkyiR+9bWdS8AeIIynyGe8Vc1O7h9fZ49x6po79WCfr4F/9XkUu6sEr0eUVLLvxs10mhoMlyNcIGGTCBos5j8S3Etbpia0M0EmZdyeR4LkbJvbYfKgmBXiIR6mP5TBILP0Ih3o5l/uVHXM822zpBi3Uuu2PdFiMOXdFDlIyY5Z7etrboXEfCLuB4CMOhRKoQcB0gzCNilhaRumSXAnJ7SpcQGUwTTCS/LSEoDBwcIZD+ZVQdwtDiXQhAzBl6Dexz8O09nhNtRQfueTKR01+qafm5LVmuHMUG2ZP4AShhlS/1H5DKOKJSb+zx83EDEPFEvf+W/qzL5XJSPYYnyunVyUh/K58P85XQLB8sxAGYlCDX162byWktkCPzbenyzprtX1vXrRlMnbQXgZ5d0wwog3N+lLHYmnfcICCPaaQAYkUu5M0v2anJJreJGfA2/2AQEIWhvMxw16OHai9ToukJenwIQN83PhJc/OY+CRDPbxFvDh56TRFdt/PizyYmwFOFPzqzoLhr5WZJqxr0qEsITPgXLM6TpLIOmdXbOPTSyrYIX00XYXD4CSk+e9wfOdyN81+cyun1uSjdMl3QwE1Om6UGDCIk1J1bEL9g8gcf/wltryhXwyr++v6wZL+jB5aruXF3Vj6sVvQBYggVIcBNWzesLpaizARY5IxG5Uc9tceqaomyAAEHNE28cwMpcW8zq9sVJYpy09nNXEf54+qiB2iGfWJq64f60k0Ud68TDEOofryzr4WpVL5GOP27oF22jkbJ+6w2CQhcpUU3IewyEd5kCQ+0a+WAEiMBka6Fos4T6n7+nMMW97vW4DC13w+yUPjlT1j7MfL5Vx51Cy8c9x5b00MT9QV7tdFFn8PkfROP+4NQZ/RzNfAJfuI7W9ORzZ+zcDAS7NiZnH7pZsTYh1A7H1swAB2HytMkpzu1FaD88WdCnFqb04XxGezxWCWE0YHqJNlahE17QeXK/LVY/nUfLFvSrWh/NW9ePKxv6NUK6SoatrWEb5I8wesl89wYZBNsbkqpFNASN5S/JvXYhP0wccBsW89Pz09pLmlkslT9w3pffy3geNWCkPL1MSSfhyS8bPd2xsqEHUBJHul11sZh1QOxRvFtN4awAhIlaRZ0Q0O8KEFArO2+s0WtRxNBI0APbw8/wnE0yWwh07acinFXU6hKa8qi/eYAf67WLcgTVXmIFTwWKXA8PM/DggRTuwBTPH8ZPv4KA1Z8+Wsel6qDZkYsgaFE/e5T3KHsbo6gcPuc3sAiRy+EyoYXrgOQUaR2pN3UcQWpzbnJ2VjmEKdlr4X2x8YCXfPGHUNrlKb1MPPPjpar+/uSSflRv6VeAag2R69mtMeCxAtbcdsUs/VHZ2LUcBjmzdXJpzBfKwn0Ztks490WC4L84tEefKae0WFvBQrWjeAGeeOWLDkCJFYogeFZH+xn9mGD8746d1k+rNb2USavmoRswxJ5YtIrH0BqRURgXZeUS2BEJ/KuBsFPJpYxK/LtGZvCQx1vaLxDNMmS+Gyqa9I/O5tThbIqAekafnp3QZcm4yliHHNfifr+AYFmri6DUXZ2b+ND2w//51Kruqrb0WKs3/Mwr2pVfp+t3DISxkRCyNwLjiFysSEgjre3lwwrce1kxEcpxO375IfItcc1hwSoB9Hfxvb9/dlUP1+thRb82FmDoZJAQZTPAuN9BvB0T5+Krdsu4g/w5S/09t9vH/rDgJQSyt5Ym9Pk9i7osR71769y3gXb2B9dTeEzmgq1KXDVigWdafWKRur59ckUv+ptnXHV04541p20K7wJGv5waHoVt+8uvsWu0k8i1RBvah11Em3lNz5vnp/SJ+TldiJBMetw8wWwIEK3qhq7QIJvTiWwJl6Chu06u6oFqUy/idq3GEUNiC6cb9Y97noOtAfkgBOHHAsEW+pwijyEqB+JWoiB7uemjBPafXdilSwoTOukBcSururPe0POktc4zfcoWkOWAlYQGvWGPDwnFhzn4n9dO7SetiQEJiPB8Ao+/WuTxq/O5MCTkI7hDB0mk4LVT+3XcJTx5tH88lqF8GdVQACc60pONju5cXtf9XooGS+RuBov1G9E54d4u9NG5MRB2EgEC/3NF7SYU+N3rcUNTk7ppoqSbiwSL8Z6y3RbBJ9JgQDh2cDCLO1BPZnQSo+HZVQ6m7/Y4foTEn151oBgnOPAYntDbg9iEWIE9Ow3kGCzGFmG+YlgjC3KJ9A/i7uxJ+SOJbb2MwK9zrxcJCCCwEDkQpszB6iGRfkkWzdSO/rl3xmOdBinu43avAriL8x/OAbKpkm6aKgB2f3WooUELsSaP6BO4BPjeUsRG3G8LdDcAeKBS15OAvZJKUn9ATT1/G72RcI+BsJPIbgMNEnxXamsB8tKIXvD2IA3+yemCbpwo6Frch93c5x6mWK+JcvfsLh7Cr48nMqpmcnq+3dO9a6v66dk1PdLshsFlTRxsj+iMFgXzEx6SEVmEwOKQZ7TrvMMoUbtLCGUaQctyySuctghqw7BrPx3S2t44PGnTEl70eSiHzYytjxea6YUpkrPsXQkAbl6Y1iemS7ocsE8B2iQuoOd1D/x22i4TwPPK1CuxtH5d7ej+9YrurdT0zPB9So1yhl4pQBgCpG30akH+bYI9BsJOITeEtbDlJrQJAmph4rwFFr2nWRrbn2a9dXIaDTqjKwsZguUq1gEtyhNest2fRPJHOXrEDxto3edwIX6IBn2k0dZT+NFnQFmNNN2TErHUmUVCELQ5W1i/lV+LcuTfQ9bm3OZPOY38b3/NZnTdf/2ZKgu+3R4DwW92nYJXovCad3mAsAcBv3VqSp/313QIhKf9bQIC4RjC7ZXBnWkcANjdq/iNMC7YA6ubunu1Ht5MHwOQHr8VPvCBsEa2xv9eSWMg/K6SG8KSyM8WFpA8VzoIFJKZ4kIWN6XM1cvS+NRzs7p5tqDDuEueCRfvtDToNMLLpWjljDQxQkqb2UR4CffTU+u6e72qXwOYs+TlbygEobaEs4Xs2SLf3oQmH152SSzmUY+Lj7gLMDkYdhJbQAAAoZfId8ewUOxPcs8FaenSVExf3LdfHy4UtRADsM0NqV0nJqJu1gDW7gh/J5XVC50Bwr+hOwDBY4DZ3ymwBehwi0viYHsLCJQ56gh4ffp9AYKV0+9E9+nbJjcEm5vD2jhso/NBBKNeljZSWYEdZ/DVn91Y1zLCn8jnNV+eVh5NGnNgicb08/4qvz/ynWuua1c2qQNo4inco069qfDNZ+7xF3FCbAACQvcuguUswxxmfqN3Dj4fzZozBMLIUM75PEfheXeD+j2F5y/7Li+N4k/benj0xbhXfzhf1tcO7tENuEG721Ul6hthOLgH54UlJQFBLFNUMzuhx+s9/f3xJX3j7LoebPfD1zZt88LwDJeBzSAgm1AGw46jd0SvBsJOJZfyndb1d4JGDWIR817oKvWRzw/98RE7/HbXYPEanl/ZvUu3TUzoGs8IQ9C8PImXUex79QpuaiOM/txSKjOp5W5Kd544rX9e39B9AMrWwdPXnbR7l4IV4Bnn4oUFEn2ANfznUZ1exdpACOun8pAjAM+xcCd/rOOFi+Oa4cLVmYRuX5jRzXMTuiiFZfBciAYi7TIFq8XzAKALcGtYuF83krrr7KZ+urqmJ/H7l0nPQ/nCor0mF3CoqQM0Xc5w9Jt0TqOHh6Ld3wOKWv4DQG+kmax9tyhIKRu20l2Wc0j7h7JZ3TRZDoLnWVqTgKHfrAXrkMItGQxaUVwZy6qWKOo5hPz7Z06Fbxk8TUDt5Q09RdKz3UL6XPeb8K2uUFsMzrsUXt3Ob6sNVAudg+osvyUEfF8+rRtmpnTL7FQAwx5imEyrKvk9CGk4hoklE4AtqQbB/ZEQ2G/qjqV1Pd7p6SQVqxEgR24bwCKwt1oI2xYLorK8Ho2B8PtK5sBrcSGcQyjwzXMI4y5uuLaQ061zkwjjhPZxPIGWToXhGm21iCG6xAhZgBBPF8OAvsebLWKHhu7ZbOhpLMQ62jzMTLO/b9NAGn4hFa1o5yz9wi4OGIwYW42O8qR/YSqhj5D3bbscyKe1FyNR7BILYAH6/S6pACi/D0CC/eXRs/hlvyLfH69VdQ9B8YvcU3Xe7iQgXzuEwJK//vdqILxZ8gO/P6LzgQeCGbCdtjMDBwONbdOAiHKjJ6/vI7K+eriu0idmprWv3dFks05AXUW+EanQ7Wh3KRnckhMI3kMbdf387IYeqDT1AjGE1xP1wmHhLbaXiAFAYfFK8ul64g2uWrHb1SLW5ioE/9aJsm6YKIZ1YHPtmrxQsb9HYIphrZTIqhMjr470aLWq+5bX9fBmNeS1aveIpG1h7AlFb6XtguF2RVnxx8F4SO4t0BgIvzfkyo+2UbPajzchNuFdA2FypGkRXK9l6uHeBbb9uCA3TU3oU5PT+ni+pIV+U6m+5xB4EksLFEVa3f3xtUFSZ2LR8oo/8LcOsBRh/kPSI1wdBHO7e4rs3yPgc0jsFbhBtxAH3DBZ0OXcNdNsRi/7DIBIoiMg5Qpa76X0XKOnnyyt6q6Nqp7CDVpymX0fQh8nD/cG+RFbAo9tCh8BcV3DLWMgjGTgA0tmgJ2UoBh9sAUEv6X19J9o3yvBea3OsDQ6EpUmKCjDukMp/PaJKX1qfkZX5xLRGkMeruGXcWhuC9zA8xXSedXiOZ0mxTuPLelu3JYHOh2dIvdOsAI9Yo+erk7HdRvu1y3z07qYeGSKdNJtYpAucQAhbhjzj/ZXoqBN/P0ncLvuQ/vfxfZrrNMyYG25nKQXxkLRusmRK0ZFvE6sgWB7EkTZlWYnmkAfzrB98Mhq6/e7+/RNUmh+y4K30c92mUBlRt60LUQcbZsIn5Rdwq15oVbV0UoFdyijqdmFsP5SzC/gLN9ArOsen05XRc7NY1kuK05rVxprQNxQ7bTkb6rtRTivI91/d8khfW6mpEuwLBONdSXDkjFhYDMCjkXwd+By01iYgn623NDfnDyj725shgn7S1gfz1nuAQJ/VdSN64A+qohL4n8AMzoMZ7dM4KjiH1By7QM/xgRtlwW44kPHBuc4ZBBEe6HbdfiAR5bayZlDqC6fKusze+f1+Ym0DhBAp2tYBwQ+jivlKaY9f0opmVMfd2qVwPbBlTN6YXNdh6fmdPXEjOYtxN0K1qSCVWkpgZ8f1guKp8JUSH+879H6QD9Y2tD9WAHPEPMKHy2XLZTHEg5gvWEOIndoVFYfRBWLYO1bww0feBpxZ0xvh4J88QcBj3loAocptPcuRPJzsyXdOlkksC7g83ul6A7uFKLa7nE/Ppe7XZNJ1eNo+kRcRX/Gqsm1Rg2h74bA2xP2B5zvEnTXMln9utrQvSsbYdGsX7XcHUocQF6hCQNCXRb3AL1ekwbRj3bH9Aoy98aceTs05Jx//CeaGG9BjPxNT/K5MpPUJyZyunG2HACxq0vY2mzgCuHuxFq4Tuhl+0+eQmmAeExDSIY/WIFBqqQNbM1TuF0PECzfeXZFTzY74cv2TdwgD72wxYgDMMPBYXEQ9TfU8uGOaHdMWzRszjG9HTLzHGh785HdjT5C7Qn9XmSs2O9qHvG8pJDRx2dndFN5KqySV+5thK/qx/0ibuDRozGMQAJgZEgGS0D8UInndbSV0MPrdd25tqoHG3WdtRtETl5Ad/gaInzHwEM0vGCZF0I793LQpXst8vVxk7+axkB4h+TOT28RI72glZc8iSPk7upEwQ+S4aOFuxL9MEfg1ilcpsVp7R4QPzQ21GkRDyD8qUReyXQxrF96ojvQL89u6GcrFf2y0dbTaP01YowwDdTvKNxkQ/8/CoYjIGBTomuhNGMgvBUaA+Ftk/uPPEDCFiESQbvp4auf+Om2CO7qTAxS4Q7ran/nYQpA3DpT1g3FlD4+VdR+LEaWANka/kwipfs2O/oJIPjFelWnAcAG6dW5xwPjPFnN7zYCAIYlCL1YbBEQ3DPksrhU3l6LxkB4LTK3xlx5W2QRjD5maH08GlU6kj9r6rRj4oHH+KfCKtidvj+cMdDkoKuLUgl9fteMPr9nty4pFXW6XdEPjx/XN46t6el2X6sE0P5QYTQxxj1H5GcwIOd2hQwt/3UnqS3RCARjILw9MrfGXHnbNBI2RHEoexZKU+i+BBnW3NbYDmZHt3sUhqd2luH8paUJLeYLeml9RS+1mqpxziND7ViNumpD4ty/feCgrYKh6MYLaYc9b7+NnMa5dN78c7/fZI6MufAu0euNcH1FL06QQwCSjD54kkGBZ4krKsQUHa+z3kGsLfTR3YHC/IRXpMHV0Q2j82+6FUMBot1AfvBNP/x7S+bImAvvI5nh0ZxlhJsDz1PwLLIwAT+dVL+FLfD7huj2QJHG30bbL45oDIR3RFHP35jeN7I7Yx8/jFAFBNb2Ye0LNLs/U/tqa/CGNJLhsRy/YxoD4X2kketkoR/Jrl0er34RPp0ECCJ6E1AYC/+7Sub4mKXvE42AEFyiwHnbh6HY2zoMr5kMkNG113SNxq32rtLYIrzPFASdLQj9yAoM3SFvDn5fERiP6X2hsW45HxQk3j/DHVogNAR/xiA4PzQGwpjGBI2BsNNoaCQCjVvmfaNxjPA7TMbMaBvTO6MxEH5HaTsIxkB45zQGwpjGJOn/D4dCtDVKKj99AAAAAElFTkSuQmCC;" vertex="1" parent="1">
                    <mxGeometry x="544" y="30" width="124" height="109.94" as="geometry"/>
                </mxCell>
                <mxCell id="3" value="Schedule" style="text;html=1;strokeColor=none;fillColor=none;align=center;verticalAlign=middle;whiteSpace=wrap;rounded=0;" vertex="1" parent="1">
                    <mxGeometry x="475" y="139.94" width="60" height="30" as="geometry"/>
                </mxCell>
                <mxCell id="4" value="" style="shape=curlyBracket;whiteSpace=wrap;html=1;rounded=1;labelPosition=left;verticalLabelPosition=middle;align=right;verticalAlign=middle;rotation=90;" vertex="1" parent="1">
                    <mxGeometry x="574.25" y="-189.25" width="65" height="763.5" as="geometry"/>
                </mxCell>
                <mxCell id="7" style="edgeStyle=none;html=1;" edge="1" parent="1" source="5">
                    <mxGeometry relative="1" as="geometry">
                        <mxPoint x="440" y="83.22500000000002" as="targetPoint"/>
                    </mxGeometry>
                </mxCell>
                <mxCell id="21" style="edgeStyle=none;html=1;" edge="1" parent="1" source="5" target="2">
                    <mxGeometry relative="1" as="geometry"/>
                </mxCell>
                <mxCell id="5" value="" style="shape=image;verticalLabelPosition=bottom;labelBackgroundColor=default;verticalAlign=top;aspect=fixed;imageAspect=0;image=data:image/png,iVBORw0KGgoAAAANSUhEUgAAAVIAAADpCAYAAAB2r7/tAAAAAXNSR0IArs4c6QAAAARnQU1BAACxjwv8YQUAAAAJcEhZcwAAEnQAABJ0Ad5mH3gAAFgfSURBVHhe7Z0HgBRF1sf/M5tzJgcBURAVA2JEQMV45jPnnMMZMWcxnXrmHFH8PMOZAxIEAUGioGSJS9ic885+7189tQzDzOzCsMsK76dFz3ZXV3j16lXo6mpXz4HDGqAoiqJsMW7vUVEURdlC1JAqiqKEiRpSRVGUMFFDqiiKEiZqSBVFUcJEDamiKEqYqCFVFEUJEzWkiqIoYaKGVFEUJUzUkCqKooSJGlJFUZQwUUOqKIoSJmpIFUVRwkQNqaIoSpioIVUURQkTNaSKoihhooZUURQlTNSQKoqihIkaUkVRlDBRQ6ooihImakgVRVHCRA2poihKmKghVRRFCRM1pIqiKGGihlTZ6jQ0NDQ6+afVnG+828opOyaungOHaekrWw1jUOTocrnR4HI5J1sRl0Te2rF6JEJXg8fk3b0N8qxse9SQKluNRiPqqYOrphKornUutCIet0fGWa2r0hKjxBsHd3QcIiIjxajSmqtB3ZFQQ6psHawRlX/ckQ2I7tILrvhkMaZiUFvRqES5xJghSqJ0tUrP1CP5ro1IQFX9WtTMnQbEp4odr5c866zZjoQaUmXrQEMqxsNVVwNXdDxKz7oRnj12AYqqW8+Qiu1KXhUDd0mEM9xuhWjZC69zx6JD/VwUvnMlalN7iCGtU0O6g6GGVNk6WENaU42GyBisvuph1O6+B7C+mN1Er6eWxSXxZC6KQENOvQy1aUjZS2559a6KTsceNbPEkJ6Omow+akh3QLS0lRZAhrb10hOtFINSWeYM76ta2Ekc7qpyRNWKq69AjLjY+kpxVS3m4sRF1Un+hAbpiSs7LmpIlZYjQlykOLf8iGhBJ+G7xLnlt5kb5ZjeHN1wt6Bj+BaXVqUdGi19pQXRWSNlx0ANqaIoSpioIVUURQkTNaSKoihhooZUURQlTNSQKoqihIkaUkVRlDBRQ6ooihImakgVRVHCRA2poihKmKghVRRFCRM1pIqiKGGihlRRFCVM1JAqiqKEiRpSRVGUMFFDqiiKEiZqSBVFUcJEDamiKEqYqCFVFEUJEzWkiqIoYaKGVFEUJUzUkCqKooSJGtLtGI/H02quoSHAF0M93qOibOeoId2OcbvdcEdGtopz0Ul8cLuAyB1HraLMh/uVHR01pNspHukheurrUVNZ2Xquuhq1lRWoLCt3EkGjuq1UjD1k6Sm3qBNqUWeOyo6Nq+fAYQHGZMrfFQ6z2ROtqa1FdUWFMSg1pWWOYWlhGtwRiPDUIjIlBblXPQzXvgcDxblocEV5fbQskW4P2i92IWotUO/YuVahNqkjutdOReHIs1GT0QdujxhX9s6VHQY1pNsZNKTRMTEoystD79698MQn7yAnqvWGn4niyovq8cCvRZi1ZD0QzV5pK5IaL4mIEM1uJbWuqAK67YKek79E/JPXoXSnPRFRK+fUkO5QqCHdzqAhjRFDun7tOnTu2hmPjv4Ua9d64HLXe320HB5PA+Kj3agTG/LouDVYvr4CEYlRqGul3mGDdEMb0uOAhGi4pQfeGia8oaEang490WPil0h4QgxpDzWkOyJa2tsxYteco6ca9XUy3JThfku6BomjrqYedVXWaLvMf+aXHFrSNcJM13N+WA6S5RZ1nCqtYnzeuJUdFjWk2zG+hct5U09ERIs6RLjhksMGGsx/rU2jYeWRQmgppyheVB12IGhXWtIpyo6KGlJFUZQwUUOqKIoSJmpIFUVRwkQNqaIoSpioIVUURQkTNaSKoihhooZUURQlTNSQKoqihIkaUkVRlDBRQ6ooihImakgVRVHCRA2poihKmKghVRRFCRM1pIqiKGGihlRRFCVM1JAqiqKEiRpSRVGUMFFDqiiKEiZqSBVFUcJEDamiKEqYqCFVFEUJEzWkyvaLftpUaSXUkG7H8IvyHq+rq2+A/N/irkEia5AjaXC5TNwNYtBsOlrKMQ460uCRMw31kqBWcNvgu/1K20MN6XaM2+1GjBwT4lyIkx8JLe5c4tyIdrukM9ggtqwedbUeNNTWt4pDnRi1KElITJy42NZxCUniRMj8reywuHoOHKZN6naER3pjUdHRKFi/Fjv16oVr3h6FkrLKVuk4iclEpLTNpZUefLwoHwWlFaiPiJa4W0fFXJFRqI31oD6SPcVWglnLjETGb7Pgfv4OVHXqDXdtDVsx57qyQ6CGdDuDhjQiKhoVudno1rsvYi55DyUrc71XWwFPA6IjgZ67RqN312hU1nHg3TpESbd7zmejsOK3qWLIIuCKaCVjFhmDmtJC1C1fgIa4FDPkd6kh3aFQQ7qdYQypVOyKvNVizPph0eFvo3TNWkS1Ur2uq2lAarQLF56QiqP2jkdOqRiVFn7o4yhwA5KSo/Hhnfdgwv/9F4iORYT0zFulKy7URscgIjbRMaDSA3e1dKaVNoUa0u0Mf0O6/vh3UbAmG4nsJrb0EFtsR7UYUtrss45IxMDdY7CuoB6RES1rVKwhzcyMw6cjnsSkL75FZFy89Mwlz61kSCOkF1ov8nWrAd0h0fHH9oity14b4qn3iGuQEWfLOsZhoT2JdLsQIY7HFnUmLjciJFI36iTDdXA31MNdL8e61nEN7IV6867seKgh3Q5xuWjQNu6JsZJzuNlizolm2xGgt90oBUlfazjKQdkxUUOqKIoSJmpIFUVRwkQNqaIoSpioIVUURQkTNaSKoihhooZUURQlTNSQKoqihIkaUkVRlDBRQ6ooihImakgVRVHCRA2poihKmKghVRRFCRM1pIqiKGGihlRRFCVM1JAqiqKEiRpSRVGUMFFDqiiKEiZqSBVFUcJEDamiKEqYqCFVFEUJEzWkiqIoYaKGdDukwcOvWW78RctNv7GpKMrWQg3pDoIxqx5Py7kA33Xnt9494sxR/LSUY/h0TEN9g0saDf0sstK6qCHdnvEp3VpXA2rdrhZ19X7axO+8u73fe3e73C3uaD+ZBDWjSmvj6jlwmI76tiPYQ4uIjEFpQQ5233N3rDrxdRTn1htj1uJIFPV1DUiK8+C8wVEY3MeNfPm7NaImaZFujHz4Kfz0yZeIiIqCOyLCnG+VvCs7NGpItzNoSN3uCNTW1CAhJhK1qV3hqaqSK61TzHX1HF57kJ4AJMa4UOPfTW1BYuJikb9uPSpLyxAZHU0Las6rIVVaGjWk2yme+nozZ+j21MrR4z3bUoih4tC6QeKU3x46T70YUc5bOj5aA5fbLb3xSESK4281oEproYZ0e0WMqGM+W8uYMB5HlRwD5v1t/m0drCKr+VRaGzWk2zOmJ9q6ZoXKJDa8MdpWN6QSOQ259kaV1kQNqaIoSpi03pMARVGU7RQ1pIqiKGGihlRRFCVM1JAqiqKEiRpSRVGUMFFDqiiKEiZqSBVFUcJEDamiKEqYqCFVFEUJEzWkiqIoYaKGVFEUJUzUkCqKooSJGlJFUZQwUUOqKIoSJmpIFUVRwkQNqaIoSpioIVUURQkTNaSKoihhooZUURQlTNSQKoqihIkaUkVRlDD5WxhSj8djXENDQ0hn/SlKOOxI+mbzEShvPCrNo80a0g0F2QC3242ICLf5Vjl/O98sd75dbr9f7viJMEfe4/Eqg/L3YXMqMP1YFy6Mk/oigZm/rZ6Z30bfHJ1znHPeLb+pk263o382LX8nnbOyM3WqMZ/Mk+PI1pDv5tDc8idtSd5t7rv2FIyjsI5eu8UoNngaUF1djZq6OtTKb16gEPlfhCvCKHSkGNHoqEhERkaaeyUU1ggnEMEaXKVtslHlMeUuZcYfQfBIeTawjL1+Nrd8rZ754pagXJKOuvp6VNXWoKa2zuhQAyureK2XY4TXqEaJnkWK3sVGR6LBRUfjK36tboqzxqitYdNn6pnkua62FlU1NaiVfBPmLTY6GpFSnyjdRr/iWhJTJiIz1ndKjnU/OC7UyXU2aGwEt7Ws24whtYpNgfB3Q10Nyipr4KquQXpMJBLSMxCVkoysrAzEx8UiOSEBxaVlqK2rR0FBAUpLylBfWorS4iKU1IlgY6KRIP5ckRGSSxGyCJu0tDIomw8rqqVGKrRbDFiUNJqs4IHgyKMuOgp1UuFjoqKleJ0ybU7Z+hpQHhs89aJr9SirqoZH4k12eZCYkISo1GTExsejfftM01AnJyahvLLSqFFubj5Ky8rhEVdZXIhi0dMK0bME0bmY6Bi4xAAxbKPHbaCS+2KMqBwpAcq3pqwCyXFx6NazGzp07IB6ub52zTqsXr4C5VU1iEqIbzSovKel6g9lRTmxEauWskiUdNRVVW2kGxaeiomNRWmEy3ScYuV3vdy3LeXcJgypESKVWn7XS8+zqLwCnWKi0KXfbjhyyME45rBDsdsuPTcSlG0lLfy7qKQUM3//Ez+Mn4TJk6dh/cpVyKupFYMah6jYGCcO8UfXlpR7R8eWZa1UbLc0emedchyGSbnTWPlDXUlJTsa8BYvx+rsfIb+oCPFi8HwNZDAYD6E/Gs9Kqah1Umkz46KR2b0bBg7cB0cMOhB777EbsjLSENGEjtSK4V2ybCV+mT4LP4u+LRbdy127DoUSTXK8NOJiVCPFwLYlg2plXVVZJQ1WLYZKfq+76iLst/ceXh8Ov0ybiRdefAu/TJ0BV2w0oqSHSpqS8ZZCGdEoFhQUoudO3fDYPTejoqLSmXLxg0azQ7ssvPHBf/Hhx/9Djx47oUrsxg5tSI0RlR6GRwq1WAxhVpQb+w0ZjBuvOB8D+u/eqPwWW5DmPj/D6kuV9GSnzpiDt0Z+jOm/Tsc6Mc5JUuEijEI4rTINq7LtsUamXCoOp2juuOFyXHXBmXKe5e315MUagolSwe+++1H8lb0W8WkpqBPDGKySc6jI7hSve+o9qJR43FLxOnbqgEPFYJ/zz+OxZ99dEBUV5b3D4kwxBSKYXn7541i8M+pzLJ09B0uLypCRlICImBh2o6m0QdPYGljZ1UkDUCsyOFMarFtE1h3btTPXbdKsv+y1OXjw0Wfw1ejxiJaeaUSkDLZNmWz9PLA+R0vdXLEqG/vv2x9fvfcSkhITvFc3xpG9C8++/h5uvfEu9JUGsLyiYpsa0m0WM00ZhcdhGrvy6/IKsOcuO+Pl15/DyJeewL579jMCo2MlqZcK4AjQwV9oHqks9MPWiv5iZZg1+KD98Obzj+HN15/FoQP2gluGZhUy/Od1KoNveMq2h/WTQztT3qIbdfV13jLd4GplyM8y5vwle7BOlQ5esVnGpsGUoq4R41FeWITOWRm4+pqL8c1n7+CZh+4wukYjSr8Mm/FQn0Lph+NX0ujVTXvu+GFD8dnbz+Ozz0fi1OOPRIroaX5hMepFx63OUe9bG8ZLxzRUlpZhr9374OwzTjJGlOnhNYtNY6cO7XDBBWegd8/uqBZDZdPv63drwmIi1VU1pqNjZevvqmtq5GoDCopLjP8Qxd9qbBND6hSGRC5GlMpdkpePU44bhvHfjMLQgwaa69Yg0mBGmYdI9ol8YMwDJ/HD4QH9URHoOHF+gLRwb7zwOP5101XISkpEUVEJGqRA6K+llELZPGwl4pGOw2rzQMeUqY8TnTFPlunP3BG8/Iz+SGD1DR6UlJQgXs6dfMJR+O97L+Lum65G+8wMr645ukJ9oP4wHt8n8oFw/EY06iZxKrqjtz27d8Xbz47AW++8aPSvRio9DRihQWJ8rQ3TbNIn+Rq4397eEZ99NrEhr/RHmI+DpAOyl/jjYyhPfetMT/CRBlOzoU7760Ck8cffIkjze1vT6oaUhUMXKQVSLcPvgpxcnHPOP/HBS082XiPWIG4p7OnSMTz2LjLSUnHVJefiuWcexs49uqKwoBD10rLZVlZpe4RTLrzXGFEp40LphXbv3AkPSO/zqYfuRI9uXbx64VRCVkjqSrg4FT3ShE2DReO0b/9++EKGqVdfewnSxeiWFhaaqQY+nWb8ral51HX25OMSEpDZLtOcYx0L1GDwvHg3eenarTOiY2NQUycjAJ5sJcIp/9ZmmxhSUxjSEq7JXoMzzz4VLz12r1f5nBYvWGHRD50ddvn+DgbDsstS2JsZIj3eV556EAP32h1VZRXmqT/9hApD+XvBsmSZ1okRLZXRxwH77Im3X3gMZ5x4jJl3o84QGs9guhYO1GFrUBlXTHQUht9wBf797CPYuVMn5OXmw0O9E39cWtWausceKHt60d70hYrbqVswq2SimFZ6bQF5bQ+0qiG1Ck4ly1ufhz367oJXn3zAXKMRjYwMnBxb4HR2GGbnS/jbVoxgRtUxpk7Y9MM5sScevAN7D+iPim08Sa1sXVj+7InWVlejvLgUQ4YcjKcfvsvomtUPGpKmDCj9Wf/+jueD6ZovjINx0R+nKYYNPhhvv/EM9tltV+Tm5MlQ2WtMveG2BhHuCFRVVaOktKxRBsHittMbOWL4q2przXSLWVOrbEKrG1IaLa4VrC4pxZMP3G7+pjFsjhFlwXOiOSc/H6vXrkNufoFZ9mCV1QyVvH79seeoGAWFxViwcAlcYogZZuuosNLScKkMy7NOhqBl0hMdKkb0wTtuRN/ePU35s+yt8QiEo0OONjjGcuPG2p6zzupUU0bVNtQ08Lv06oH3X38ae/XtjXwxplwQb3QwxP1bC6Y5WnrHNVVVWLp0GfILixrz7Bu9c87JX25+IRZKXamrqTXzwa2Rzr8jrd4VY280Z/VaHHjYIAw9+ABTMMGU2xYaj/OX/IX/ffcT3hv5EZ557lWMeOpFPPvC63jn3Q/x5dc/YtJvs8w6Uj6IoGL4wvvpOG+1fFU2Xn33I9xx/xP4dcpvSEiINz0D5e+N1SMa07z8Iuy3/z6486arjBGlPvBaKD2zzhoQGl3q07JVqzHnj4WYOut3/DZ7LuaJUVmZvXZDj87nHn+92wRv/J07tscLTz2AXbp0RIl0BmhoGRbDaEkYPuOJiYzClF9n4PsxE8xaWCcbG2Rgk8FnGF9InZv7+x9yD6dBHH/KpkSkde51v/d3i2ILka1y7l8r8PyzD2OXnjtJ74G90U0n+m2BcTnM92Mn4t/PvYKnXn4HY77/ETNnikL/sQDTp8/GmHET8Pl3YzFp5hxUlZYgJj4eXTt3aIzPhsOe6/RZc/Hia+/i+bc+NOdS22eJcpufxq+y7aDhYqUmg/bfFwP33tP89i8XpzxdWLE6G2NFL0rKKxAVF9dY3iUFRejetTMevetm7L/PnuZ8qJ4or1sdoUFbuz4X0+fME92ag+9+GIPPv/kRn3z9Az77djR+kPgmT5mOOWJQlyz+C2ulR5kr8SVKY+zMvW5YCRIsPp5nHchIT0PX7l3xoxiqatFxPsyx6Qh2bzjYMBlHhPRK8/IKkC9D9oyMdOM4D+obf4H06MdOnIJX3vwAy9asR1xiYuO1lkgf46YdKCouRUepl+f98wRER0UZefrjyNmFn3+djgnSGGR17eQshWuBdDWXVjWknNznnCTfS37hyQfMMIPngwmLvYtJU2fgiutvxcI/5yMxPRPpHToiOTMdSRlp4tKdV0dFCXJzczHll8mYOX+xGNKO6CatvX0Sy8L58rsx+I/0YL8fPR4pWZlITEkycZBtWQCKQ7iGlNRUVSOyvg63XHMxjjz8UDMUDVXxGRZ7kYw7e10Ofv5lKkZ9/DmefeN9fPDR55gyZSoWLfoL68TgFBaXoECGwqtXrMafc/8UgzoVn38/DhOnzzS9ylIZLnfp2AExMdHeNIbQKzlPne/Yvh2qxOtPYyYiXgxVU0Y4XGy4PEZK3ftrxSrMmj0PpeXlKKuolHzmmd723PmL8NW3P+HlN0ZiseQ3MTnJyMimrSXSx7DVkDYDCopKtn5dLvr264NLzj7FCClQwVhFrJSKcfmNd+GvhQvRede+5hyH51R++7DJbCQhBjMxKQkxiUn4a9lKjJch+847dcMuvXbCmvU5eP39j/HMC29g2fKVSOvcyRQQ72Os4QrfpjUY27Jwt3XaNif+LTWkxWUViI6PE12oQ4H0so475ghccM4/0aFdZqN+hYJ++Drk2++OwojnXsNv0uOsFL1KzcoQl2Ua7EQxcgni2OtMTEtGUmaGHNNE3+KRL0Z02uRf8fXPUxDjqUO8GB0uZLcEi586HBsTgz69e2DWH4uweOkyJCclGiPR4uUijmu4Y6UXXCDpHz9pGn6aNBUTJk/Hd2Mn4OMvvsf4nyehuq5OOhzJjR0Spmtz0tZU+RMbHv3+nQ1pq86RUibVZeWN783zzYVAgqKBpFCKpRcwUYbuGd17mieNVsn8HQuhTgpd/kC7ju2RKxXqnsf+g0+/GY2nX3kHD/37JdPipnfqaPyHa0QZn3XEhsW8WGfD9vVr/TcX/3ubcoHuITZNfOpq08YrgfyGi3+Y/nKx8ROWZ7jxOnG4zcMlzj2e/c/jTSNq4w8F37X/6oexuPnex/CONLauCDfa9+iODDGUlFWNVM6a6hqz6xj1i8eamjozd1jtfYrdvl0W2vfqZfL08BPP4Z77H8dPMiT2LX9f+LedSzX5l98D99kDDdJB4JCf2LQ31/kS6LqvI4zF2dHKZUZ17Tp1MHWRjdPK1WtN/cjq1B5JaSkmH0ynuc+bvlAEjE/uY7lb/aMj/v7+zrSqITWIkcySwhMTyHIMiBXuehlquKrLTcsdrDD5F8/RmQIRl5meKkO19bjl/ifw5gefIDU1BanSs6CC8Lr1v7nYdPFeoxhS8fibFYO9Kb7qWiWVk1v+GcMuUHm43ZqNz4bRXNjyskdAx3Wwvo7x87y/YhInfU5Poqam1hgNNkY0AvWSNqaHL0UEundLCBQ3j5QN46dcKispG4nf21CyB7IhfnPYbCgf6kaVDPFPPvYI9N+9r4mT4VuZ+2LTyNHOfz/5CjcMfwgLFy1FqoxUOLy2RpP+bBjBHP2YrR3FpYmOZfXsiSmTp+Km2+7H2F9+bfRjsQ0HXW1dLUaP/wUvvPQG3v/kS9Pzs9vYEStDlvHGZb6h3Bm+xYZLeN7t9ePvKK9GP17Z83yqxN+hfTtxWeY3z7F2OfuUNl1XbPxMAf3b+OQPKe9684yC+kfH3iNx8iE62Izw2zqtb0i9BtEhsABZEHTxMmRriIhCbU2NT4ULXuN4j7kufpNliMUCTE9LNQ8DrJKasM2v5mOVhPda41BVUYHygkKU0pWWGUNR56k387pUFO6uUyY96jIZOpUXFYuRrTJh+eYjUF7sOR7NBhtiIMolnArpcZX7uQoJ1xylt23vo/Lyd0WJ+MnPl6FSiTGilAXVnEvPuDkI01Uhaa8oc15bdCpO8HQFw9e/zVuVhE/ZlFE2JaWmEvGhIRsyE395OUrkGv1UcTs6OW8rbvNjduB9FRJHZof2OOjA/cxrn1JMAfHN1+ffjsaDjz+HUinHdtKrZNkyHUY/rPP6DYS/P8qXx/ZiTFcuW4nb7nwIv89fZGRi4+WBujN3/kK8/PpIDL/vcbz4+vtme744GWbb5VtMR3mZlLuUry1j3zI3uiBDYBqljeVP/XQZWVcYvSk1jv6NE11g2TB8NmbULZ7j/gOlog/FeXnG8Xd5ocTr45/4ys+ySfxiGNmwsExYviVMr4TBOuFpcPZKYCNWIteNDhYVmcY1wqRdGgcT0t+PVtv9iYVBw7hwzh+49PLz8dwjd4nQXOaBgD9WoVnhjz7pPMyb/wcyO3czLVedt1At9OePLVheswVtFD6A36ZoVBK5l6/X1YjyUSE4n7WzDH+6dOkkw6MMJHD+jHs3RkYaw0XloTIV5uRiuQyXlq/PNUrJJ6ax4s8YZKZLwvZNF/POaxxq1dbWoHvHDoiQc1yitXFBSYWTdHDP1cKqGvOggPKtFANaIfd2Tk9D/947SU+rs3lCnCDXOOdUysojxqM0Jw9rstfij1XZyBeFZ68/TvK0OfKysqE/GskqMZANIiM+4d2lcwd07dLRyCYlNRnxcXFGhhVSicqk4SnOy8e6NWuxYOUaFEqauclMrQRHwzj8+stw7cXnmPCtcbbQYDHvP0+ZhrvvegTZeVIZxRifctKxuP3mq7GTlEewtNueKu+9+pb7kCMVOSU1VeIJPNrZXKzcOApZ99cyHHPU4XjjpSeN7Hme6za//H4svvryO4yeONXkOSUrw+TRyZcTRpWUZ9eO7RAn93DdNKcu5Iq5bg6SzAgpy5LqKuTmFyFe9IlD9WoaLGm0GuQa9xhNlfN8q8ououczikopn9Uc6cl/HWSUFid+zfwiA23UMKfecA61SMLMFz02PUdvWVg50Q/vsD1KdhZqpQPRIGXYRUadvbt1Qlr79jIaTDcyiIuLkfzUmU5HsRjYkpwcLJXyXyR66JJ0J4i/tVJf+vfrgx8+esPcYxt4Xzj6Y3oefPYVPHTHw+h74ABpnLftizWtakhjpXCXLlqCwYMPxtfvv9Q4VAkE/dPQjJs4BQ8++Aj+WJItFTQJMUnxoqjOHo/WEFl8KwIL2ZctqSS2YjAuzu16pMfZs2sX7NN/d+zev5/ZjIJLuLh0xPpntIzKxlcoPQE+BZ02ey4Wzv0TU6QhyRFliRLDFSOKYjx74yGMi3KpkF4Kz424+2Z05RyWt6JtwDFeKUkJ+GPhEgy/4wFR4Gi0S0vB4MMGYZD0zg4/5AC08/bQnLRtMEz8bfbSnDYD06bOxLgJU5AnBjVeevBs3JgOxm/T5Q/vNwEL1aLEddKr6NAhCwfutTv67b0nDt5vb/TZuWdQ2dBALFuZjUm/zcT0qTMwY848LF6+XCpbLO64+fomDel4MYb33DMCS1etMXObj917K84782RzjT0j/3Tb/PDp/JXXD8evs+YiWfIqnjeSf7gwHqaZc5/ZS/7CSy8+gQtOPxGjJ0zG+DE/453Pv0NdaSmS2rVDtBg2OwXUiOiYS4zNf/79oBlil4thomGWRJrLlCGVnm9KTZwyHU+99CZSk5NNY5KanGjemuq1687o0b2reWhDeZqyEuJiYzF+8jQ89+Ib6LdrL1xx6QVmKF9dw31gmX/HHyNg3WLZTZzyG9758FOTjhiG5ZWjDZNDf7PDfkmZ2QB6X4m/n9SPgQP6Y+Dee6BDFjfG5ijJ0QE7tUC4FnfWHwvw86RpmDdjNibL7/w1K7DXgAPww8dvqiENBBWMW5XlFRSY3s/SqT+agqVwQykxFW2CKMyokR/jp19nmF18oqOiEcnWVhSR9zLsUEZ1S7DpqhUDUS5K2l16CIcPOhBHHXUYDhiwlylkq0xUPEbn/LkhP/Y6D1QgDrN/+Hkyxo0ejzGioIWifCkpSWIInOG4zQsNKTc15t/fjXrdbHnG8/7wXIRUqCnTZ+H4o47F4cecgONPPA5nnHSMqWjsgfkqLv+mAjIuxznp4kOVDz/9Gl9+9jV+mjYTqdKDNUvTGKekwV+WNq28XipDxyQpi2MOPRCHHTkEww49yDzdtnn3l8WGv82/4lxmH9oJv/6G9z/8CFN/m4VrrrwMt19/ubknmCEdKwbh3vsfx2ypfLvt2Q+P33MzDjv4AOOHcfgmmeFYWTzz6rt47rlX2T0ze9PavGwtGB4de/+c4+/UoT2uOPefeE+M0RLpRMSkpxsDyXyw/Jy02vglLfV1SJCRyPgJ34lh5PSU84TaIkHzXyOXL77+EWdceC2y2mViD9GRk084BkdLI9qtc0eTX/ozvr15pOF69qXX8Mzzr+Dqyy7GfXfcvNFyLV/sPR9/+T0eevw5FIk+xku52p4z4XWOstjoD+izi3kd95QTj0HvHjJ6bCw3WxY0vsyvb6Pg6CB1ko3q/33xLd5583XURadg+uhPjR79XQxpqy5/IvFiPFdLS332maeYh0IsmFAC4LUe3TpLIR2CdKng7VNSUCZD0xzpPdWIUa2V1ps9Eg6pTcvNaHz1Qkpxc6uJk1YxMPy0hBiZgdLzvPaKi3DxeaejT++exkg5/szBKAqVigpvK4XNrz0SNiC79+mN/fffF2mSl1WiPHnr1sMtLTmXo1i/bOX5gIbziedLb4Y9C8eQbpwTyo4KNUVa84qKMox4+F4MPnj/xqGWryAoR1shGY8TlVNZeK2/VMS9pAfBYf4M6a3FJchQ3MfAW+zfHmngqmR41q1bF1x7+fkinwuxz567GQPi64/YOOzfNp888BSHuLv26om+fftIiiLQa6eu5qER/dt7LM69LixblY1x4ydh+fJV+Mcxh+H4ow9HcmKiCc/X8BDKjvFzKdwIMQprZZQQ41176h++PzatmwsbduaLjQR3meduY6kdO5heHsvNhusbP3+6GqRM66px1tmnIzE+wezJyq8GWHgfp3So6wvmz8eP336H4447GrfccCWOP3KoyMBuhuwYdMrKZmH2vAV47/2RqKmuxD9PP92Ul2NwN4WjHaZt5tz5+Hnir+YZA3fJb0y3xF8peXPJ/ccMGyLxX4FTTzga7TPT5T421sabyROxdcP+zXAcP47HlKQkHHrAAKRmdTD1+0QpTzbmgcrHKc8ddB0pofD4Ua3C3HzES6t82CH7m8xTyZuCvdkBMmwcOvQQdO/RHV06tkdHGZpxyJFXUISa4mJHmFL56ZeCNoXlvZ80R9C8h6aXc6Ex8vex0gO9+frLpDd6AGKMIjn+bLo3KMiGsO3fG/w4+XPudUllipO89EPXLp2wJnsdVotREItoWl/GT/80pKxwF3DzXTGkhEaT8W3snPnUQwcfil3EGNGP7Xnymn/aiJMu517+ZpysmHwwN0CG5QsWLMbCPxciQcrIYv0R7uVaLb1pGt9b/3Ulzj7leDOfxmjoxTds6yy+5+jPl/ZZGdhrj74yLO1meiO+91mcNLiwfHU2xo+dgNXZa2VIfwqGHnKAkR/DDHQfz7F39dU3PyBSGjS3tzEM5Ndi88uGKYIrDMRAMF9NOcrSHCU9sfEx5ptCfPjJdDM268f683XSzUdUfS0uvPA8JEpjxnuc1Q2OvEx6JVn1nnrM/XM+1uTl4sF7h2Ovfhy1OOmlHxsevdvyGD12It7/4L84aP+BuODcM5HmLd9AemXSKjfzwRiH9zWiY1EcpYhMGBYfesWKDM88/QTcfsPl6LfrziadDnxq74TJMPxlbM85cdm64TS8/XfbFbv37d04JRCItmhIm7ZgWwmbST7ZTu3UAR9Iga5YtcYIy+lthcB7L4XNL4UeNfhg3HPz1Xj00btx31034YbLz8NJxxyOzh3amWF4kfQ8yqS1JBwmE95rK0YwbGGyJxrrasBJJxyFf113GfaW3pG91xb+5hYa/VO57H0M7yhpFO647Trst09/8xEyuywpWMj+6bdKyErET2VYRWY8m4MNhwajU/t2GH7TVcgUo8onrpQf47WykR/mSe+uu/TCncNvwD+GDZVTLD/num8emwP9Mn6bBi6N42L6pjBGqKEOiUnxMrTNajTk/tC4GJmKYw+2rE4qoTS0RpYhkukray5royyKC7fQyb15eYWBr1knfkpFB7h5clMwn5yOSc9sh3POOQe79e7VWD7+8ud51q91OXn4fc4c8/ZX//57m42nHdk3v6wIy6mitAwxohfnnnUKrr/8AnTt1FHi2XB9c8N00r3BaPK5QzAj2lZpNUNKKDD2njhHlJ9fiEefe9UUMguhKWPKAuL9PvqNjNRUqciDcddNV+Phh+7EfXeKUb3sPBw15CAkSq+vcH0uyqS3SmzBULF8K4nFKiLnRCWRGCbDlSsuPV8KtbuJk9fo/OF95g0rcU5eHMW15/zjYhCOojk9PD6wulla9N69djIVyaYjHGxafOHfTcmY8TJtHFZfddWFKJKRgz1vKZOeepb0Fm4VYzto/wGSXidMawgD4S8Tm75NZdP8fBt9cNeJ0U1DSrKz2iDQ/U48QL7oQfay5cYAsMHwj9sfXjdGQ0Y8KdKb7CLGIisrHZmZaZvn0ulSA1/zuiwZDnNhfzs5cilQKJwyciPGO0I79bgj7RVTdptCvXVj1jwZok+ejF137Ya99tnTK4PNl7ldD3rKKf/AZReeZeaAHVkFrh8W+gmkA75sTlraGq3+8TsKj3NvtVIYXOrw6J3/wi3XXNKo2BRmcwRqKwihd/7mkedXyHBv8tQZmDljDsZMmIKVa9YhToaKCd5X8BiXbzz2b84LlUpv66B998LDd9+EPWWYYcP1TxPvcdK8oVJaf841c8r8bW/1D4O9JfqlEn7x/Rjcft/j5g2sBDEMJTJ05hzpmE/fMV+1ZLqdsDYOwxeGxetUUnrzNW68n5j50xBh2HiWr1yNocefgzL2fFJTnHWgtXWoq6zAnbffgKulEtneXuAK7CsjB5+fJgm+eQmVL1+chx0uTJo+C3ffMRxVHjeeePQhY9QDVWY23JQDVwdcd81tKJb8RMhQ2zycDBEn5cA5utVLl+Mu6XnvLrrAj8ZJjrw+ti5s6Nfn5OO+EU8hK6oeY8aNRpYYYZblhiHzptgyt2yQudXLBtN7ffG1d3DvgyNkKH4SHn/oPinTVOM/2OjF6tDIT77EI0+9aD5XzSV+OVK3jpCR1P0ik91kVMIoQhlRq3e87qTN/GlwbuE/TqPVXHboh02+UKBc30bhjvt5kpREBAYdMMAr2A2VOVjhEF5jAdIxPOuV57kchPN3+w/cB927dUFyQjz+Wr4SZTJ8ipJKxEXDtjxtHDxWlpWjqwwr/3XtJRh84H7GUARSkg0K4cS/Pi/PPD2eOvN3zJz7J5avWmOeuicmxpuF1s49jn/foJxwecFleqQrV2Xjj9//MGsEObnvO0fq5DG4THid8Hr22vX44ocxZpu0n6f8hmmz5qKwpBQ9RRZNDZl4vzGQopSr1+dg6sRfkSnDfbPIu7jYyOVOGQHwwRkJprw2PYRhsmJyWzquXOAXHwmH4/4Ey5/FCdeFVdI4jh3zE5KSU3DUkUegk3ce2f9+a+zHTJyC0WMmooEP9sQwMZhQcTEeGtJ80Zsbrr3UPA3fdece6CvDaC7r2tqORolrgl9750OkxAIXXHSheTDLdDRtIKyRskZ143wtXrYSH/3fx1gv5Xn6GWdg6MF8NuHkP5gMnLCA3/9ciImTfzOdjBr2zkWn/3XVRTho/31MukIZUcJwCP1yXXhefoHZJIXL3/jgzcmbk+4N6Q8N7QPj3WEfNhGbWfYI4mT4zeVN46ZMQ3F+ETJk6MQ5Osqe/nxbs1DwunVWAfibD4d227U3BshQhsa1MC/fbGoSGRNtWnlb1emXb09xMflJxx6Bi845zfv0OXBvy8bF9aEjP/oco0Z9is+/+BbfSqGO/WWq+ab+b2LAZsycg9XrcsxQmNMZkjre7A3FwaaZCtW5SyeMkYalqLTMnKPxaY4h5TXCa+9Iet5642289+k3GDtpGib/Nsssj5o1bRaWLFyCLD6k8xqdQDAoxksjEi/G8oP3P0aypJ8LvWPk4iMP3WmesNs0B8dJ52oxeHzI8/GnX+HbL7/DDz+Ow7ixEzBB5PT7wsVgCfMb5XYumwTKo8XJq8vsUjR2zBikpafjiMOGoh1fO5YhrP+9TjpdIoupmCR6FhEdYx5IMqNNxcP1tIXZa3DMP45GH9P7cvLM27aWs3Ex3Jy8Arz85kikJ0TjggvPb5YhdfJgNdn52xo3HnnvRDE473zwX+zRd1dceN5Z5kGO9RsMxsvL1pCat5WkETzt5GNxugzrOd3B+wOFIbeaewk7A+NE9iM/+Qpf/u8bfPvtj1JuEzB+/ERMmjoTi1etNju1JcTHN5r/UOkiaki92AyzsOJEgFy8/KsMxZcuWGzeVNmpW2dTULZA6N8Z0jUtZF53/GzwlxAfa4ZmPXp0R4n0quZKPFzKYYypUVSXeVd715264obrLsVOXTubuHk+EHxn/FsxCP/+z6v47OsfMH/xUrN/Y0VNrShcPcqkN7ouJxfzFizBdDGmi/5agW4Spq8B888He05cOrJYeqW/S6+UBoZpsMufHMUOrLiE598e9RlGjHgG8xctQW2DNCRSEdmYsAfOhxnTpMe8dOECDBp0iJlXpMH0z6MTPHficXZDf/3DT81Tbr6txSmG4TdeYe5h2oKlhRQUFeHLb37Ciy+/jY8+/waTp88xOxwtXbkaS1asxLxFSzFt9jzM/X0eigoKkJ6ZaeYTHZhP708/mCZeX7nGMaQpqWkYOvhQc28g+Vi5mQZFKi7fLOPUEjMQKv28zxhSieekU45H3113Nk/tqTM2nq3hHFk6xpJffHj93VFiSKOabUgdeQDFpaWYOHW6abS40fno70Zj9Ojx5kn96AlTsHh5NmLiErA+Jw/jRG6/zZiFmPhE84CWMC2+OHLzGtJfZ5hPH6empODS887AwAF7Nfr3v8/C06xnb7zxPt54exS+GfsL5klYf61YjaXiFv61HNPnLcC0GXOk3i8USxSJnlL/nIebwcMlakh9sJlmgbGyx4ixWykCnizD0L9EwHOXLkdsXIxZXOz4cwqH99Go+v4diA3X6JwF0l07d0Lv3j2wXoa+f8pQPE6G/Bzq2tcxDx98EC4861SjuP5hW4Vl3N+IER3x7CumRxqflIhkqcQJYvjjpVHg0ia+sheflGReuaSBnCMKtEri5BKR9tIbsGHZ8Hm0ytG+XSZG/zAWxWLYObxuypA6xtCNhWKkbvzXcOnNViCxXTuRXaxZskNHoxibkIA4SeOMGbNRJ0p79NBD5O7AxsTGwyHYp9+NNe9FR0r6Lrv0XOy31+4mT6FWBvAJ8XujPsFLr7xptohzuSOMfBh/bGIiYujYA5F0r1u3XhqOeSgQY9q1W1cjHxIgWQZHdhsMaayEc6g0DHxQE0g+Vm5TpML+KhWPi/C31JDSf6h8bymMyxrSN97/COnxTRtSRw4Oi6Whfu7lN/Huex/hm/GTMUMaqN9Fv2eLfs6Zvxjr8gvNa8nUqT/EuE2dPhPLVq/BXnvugd122dmEEVhuXkMqDdD6Nesx9NADzVrRYLK28DSnlP7z3Ev49KsfkS+NOL9cGi+Nd6zZ7jLBlH9sfJyZv10gDf+cmdLISd3Zow9Xn3AfWW9gAWiLhnTra8VmYDPO+ZcIqdzJHOKJ8o6dPBUvvPmBeZf6xlvvx3My3OFrkBsUioXoFDYNm50CCAT92fvYm9hdCurqS87B3tJDLZWhPg1pfXUNMqWSH3jAAPO3o0QbCoV/W8VlCz/isWcwZ87vqJdwuekFPw62Tobw69Zv7PIk/DIZEksC8NMP3+Gl1982m+l6g9oIJ40uUaTe6N5zJ/P01jwRb0I57OV3P/4Cf61ei1SRIeXJOU3KxToqGuNI79QZH0qvhwrMv2mI/WHeeZ6GpHOn9mbzldSUJPxj2BBz3crCH54vkd74Dz+Nk57Iu8gpLkWKNAxxUoFcovgsK+vol69IJktPtM4dZXajf3/kR+ZbXBJS0DgsfGjGrBeXlJnessOm9zAYOj45j42Mkj88cl/osFsT5tNmlb+5n0NzsPrJKY5X3hqJ997/P6yQxppvKvHd9pQO7U19ShKjF5+UYNaAmnf7U1MQn5IuhizZ+G0WLLOaGhy4b3+zbIrVzabZF1tmHIG9+OJrGPfLVESIAef+rVESF6fzGnWAgQh8AJzSvj3W5BXi6X8/Zx4K8iWEUHW6LbJNDSmhQtCxEChg9ugSRQH4IGL+0hUY+dnXePy513H77ffjupvuwRMvvWXe5LGGwFEoZ6gZ2qA6ikdjuu/ee+KsM082D3U4Ac69IHt06ICDB+5j0mEVwmL/Zo+Bc6D5pWXo168vunXpZOZ0+XJAl04dNnHcH7OjGBIOWXbq0cP0DlaIsbPDOd94nHPOQ7Y99tzNbBLskvw45iIwzK9tJL6SIV1sajo4AcJwrVx9Heejuei+eN06zJOeCQkkM97P8xxmZaYmo76iHO0kr3znnzAsf2w4i5Ysw0vvfIT8MukZp2cYk2X3CfBNC+E93IwlWnonNa4IfPH9WPOAzOIrH3/slULp7bAMA82P+sJ53ZSEWEYq4XpPbgFWNpvjmgPD5SoNfmSuocF5Vz8YG9LQYKaBPv30K+nNJSBJ5M2HmxSDjZd+jRzpnBPG8fVec74JOGpw1VSbqbZuXbuYjXmocv6i9g3rzQ/+KwZxNqISkxEZHWPKn9d9y9+WFddOMy3J7dpjfX4RHvr3y+YJPK83V3ZtgW1uSImvYCk8tlZsLRMy0pAijufmLFqKUWIsnn3lbdx558O45rrhuP/JFzB+ynS51xasE0YwBbFx8D35wYccIEOVg0yvtF7Op3XIMkbRNy0We45TECceNwzPPPEAHn/gDjx+76144v7bm3SP3XMLnnz4Ptxx07Vm134bnn88rBjkgH33Qmp8pBSOswQlGNY/n4bnrMw2rwfalt4fxkW5RESIgspQm6sMmoLGKU7KIc5djd1kaGuh0feF4TItfB1y/MTJmDdnnpRbZmPPM1B+ff9m+cYlJKKwsAQTxv9insjzvmDlSMx1Ke+8Ai5kL29MU7B7uJl4amqqmcO28TKEzcO5z6a9ua4pmGYaG+62jyquI+U+B6Hy7pT9utxcjP/lV5FbERKkgWRDaXXCEjAdIeTqD0do7oZq6RSkIzUtxZQV8c+XPT/7z4X46fsxcmOUjC6jjZEMlAbfc8w/dSWrUxf8Mna8mc/miCjQaKmt0iYMqaVRuPLbCldOmC99JqSnIVmGZ+yBLZFe3dcyxH717Q9xlwz/r7nhTrz33y9ML7UpbMHxgdIRQw4WwyNKLIXdvmMH01v1+vIeHWy62Cqz18q3eQ4TQ3zEoAOb7Y4acgiOl6FxsMl9BxoPVvpeSEqIabKiMx90XO5UL72GKBm68u/AYTswTO7xumZtjvdMIKySO0aTK516eXedp3IHCp/nVks6vh8/CW5uKhPV9A5SxF4z+yVIRL9Lg8mdoJrCI+nweKKRm1tk5nDNOSlLys8X+6aPWVQvjRg/NMfXK0MkaQMMS/KSJMNPTiXYsDbXNQdO5fBBjIx/5a9Nt5b0hUGyHmRLGU6aORfu+IRGjd3ceJvCCacOHdtnmE1U/A31Bpz4vv3pZ2Tn5pvdzcypJtJi00pd4VSPS+T9oYxCufDfv8Fuy7QpQ2qxwqVj5aWQjVEV+N5ygrSMiRnpZt5lxbr1+OS7MXj4sf/gppvvxrjJ08x9weA1KiF7vL16dkf3bu0RXV+FjtIjdQyT4ycUNm1b6oLD61wOlInYGOld1jVv+MUPs7Hlj/QqXug4BLnenEbHwsl/vrpJAqWH56j0BYXF+GPRX4gRw8MGqun8boAVNEIq39r8QrO9n522CZZ/9rw9rkhUVdRgTfZ60yt1/G7sn2FQf3jt8KGHIEUaS1dtHSXt73UT+BAyTvLN1RBX3nY/Lr5hOC687o7NcMNx+eWXmxdPSKgeFndQmjbnDzGKfL8+uD8rD8qba3L58gm/WcUtHluSdKlz3O82UHHa8qes50qPtIayFTmbtDaj+K2OsEMTn5aGCb9ON8utqAO2p9vWaROGlAJvdN5zhAL2dcQaVfqNlooXn5qChNRk8+bF5z+MwWMjHsfonycbv8Fg+TIcPiHeY9ceiHHXSQ+QW785afFGFRCmg0qzJc7moSk4zxURwbklRybBcMKjsZF0y+/mhe7Ahz/NhYa0fZZjSP2z4JSbk5Ya6UWUijHlPHeodAeDIwK+tcLVAiRUGOaKVDQRFOYuWGR65cFxwjl66CB0lpEIN7rhg49QMD801kkyZJ4yc46Zv/3i+3HmRYfmuG/G/GweAH7z829IEHk4bBon4+HwmfO802fPM2+1BfLni5ULN3LmVwj4csQWiHuzSJHGMb7xBYqNlcC3nIpz8hAlusW9EDYXhsNF+uulR8v6SdlsiR5tC7a5IbWCsjvhOMYhMLxmHaGwrcC5DCkmOQVzFy7DG6+902hseX1TnMrPVx97duPmDWI8jWFpG4Xm5K/5SmRk4v3dErAR4N6xDsFjMuUhct/SJULMB3Mcan5wIxo8SEhKMPNyXA1h4/WXG/WK57hsh++Ix0l5e2ql3yT5CiZjq2PcSYyGKikx0fn2V0rzXIYY4MiKCpx9ztnmawr2VVV/2EulfLmv54rFfyFNOgVy1rnYBEbetZS3s+a3JTFzpc0wjnbqx8pvc2EclNXfjW1qSG3hs8fDzzBwsXBxUYnZcdtUqhDKYQvLFhgNJ8OJiUvEvDlzzdpNEnhOx7knISEO7dtlmPk29oSc8MylgDAsFjId42sJtyHPm1kxWrAi1Ut+OX1AApWJlRnnRaPjY6VnKuXnnGo2lD3ly/aMy66agv64qoFfCMjLXoPlS5eb1w4DicFXV8488Vj033tPs5eBdDmdeEPJzntNvDXbRUnPulB65imZGbjmorPN/YRx+UJZ0hhyWM+3z2pKy0QnuZ/oZpSlX5gtBV9Cac50UIyUR503X5sLc8JlemblQaMGtU7+wmWbGFIqEB0VK1qUbu3qNWb37neffwxHDD4IectXSqWMcnonXkUOha0k9MkF6JVSkbm+LhTUv+jIKDPsqqquQWmpsyO9CSdIlLyHLSads9xm6zpnIbJXcfiKqpxrC/CJcm5+ofevjXHS66w7pRHo2KE9KmRo3pzeiy8MpU4MIcuD87G2AWyUhx/mrBQUy5CGkJ/Q4NxqEO8mHFZu7nl6/x3/MsvTCqTxZkjmWjP0LBRWp02PSuIpzl6N+++62TzUZLyBeumMkj09fo5m5OffIjLF2Zi6LcJvfbGeOGLaWFaUn81/9+5dzX61XFIYrOyCERHpRqnIgi+usB47vfW2UQeaotVT6atwLJA1i5aifYcsfPb28zj5uGG468Yr4IqNw9p1OWarMBYZ/TeF9cN2MCY6wixlcgh+L3swpWVVYsSrsXa980CABIuPS4Zefu8jvDnqU/MJ3fc+/t9muzc+/ARvf/QZRn76Jd7/7xcbXePfH3z+Dd7/9CvklFVwvsMb87aFPRG+M08CKTbrC2XWqUM7HH7gvqgvK0KET+UKhfVjKmNVJfrt1Bn79t/de97rKQTiCwmpqfhl2kwsXLzUpC9YvLZi81XXR+66Ce1kuF6Ql2/O2631/O/jtaachUaRf+csWYh/nn4yzj3tBHPe3x9hNDSwjC9bZDtjynSkZGXKaKd5C/Jbm9y8gsZlZv554d+24eMG6Jlx0XxSZxq7AMWwCUbmEoZ0J1BXXIgzTjrWLDWkfPyiarO0ak01iipH9kL5ueJ1i5Zg2NGH450XnsAJRx1mhpBsjd597d9mO7uc3DxER9vPegSuHMR3GFFZVYPEjEyzhIj4F7qFQZWUlWH1+nxpaRtQWFDgVWxvwfpAJeG15Suz8f77I/HoiMfw4Ihn8dAjTzffPfoMHnrgQTz5zPMYMeJRPHj3HXjwkSfM93DMNa+/+x94Eg89+QJypWVmxdyWUA7sFVRWuvHH/IVGlqxIvvK2UMzs7Q059CC44xLMl0H58ChUudlrNH5c/lMlct5jz93N51gYXnMqEadD+PojN/L+4acJzhKiIDD9dIxz2NBD8NSjdyErMw3rZERkVj145e3oQfB0E3vdOPmbX37gk+a1C/8UnT7S7I3Lt8FIIB3kKfZSi0ROb0nDXMXeuAxpuTSrLeHIIgbLV+WYz9AEa6hsFoccuB967rIziqQHSz80MIH0xWLD4mhsvRjr+IwMHDdssBjSwJ8Zaau0miG1guf8FwWWuyobt99+Ax65/3YcMnAfM+/oDH9cOF6M6qjXnjav/61dkW0m/ClowiHYRs5bSLzuZmteXoLjjj+m8eN0gXpQkhrzLzcaWbp6LTwyPMyWysTNR5xrGyuJ5cABe2HAPvsgp6gCtXx9U9JVL2mulyFJMOeR666YaJRWV6Ogsh7nnfFPvPTMk9jnwEHIESPObcU8NDiiOPVyrBXl4RZ6XJ4VOO2ti/QJUOOSirR8lSkjc87b+7A4BoqfzojAgfvtg4vOOhUl63O8ZeoYU1tetuLY3+ZVT3EV0hMZ2G8XnHricU1u0eeLSYuURVJaCr7/6WfM+f2PxvMMPxCMjz2eIw8fjHdffAIH7r8vClevRr70ThknjSIffpp0in416pqPM2kXPxw1cR8HrqHNEf058+wzMOKBO80H4EIZEDsfnp29Dp9/8hUyOrY3qwTkpNdH24Dp9ETxSXohihvnyTdNJmVBmXO97vVXXoyOifFSFUudN6NE3hvJUfz7ypF1l89FSrJX4D6xCd06dzL+t/Sh5bagVVJKYVGYZj502UpTCiPf/A+uvvwC9Nm5R6PQnArpkp5BpBnmf/HeS2bYnz1/HnK8Ss6J6BipaPzkCBWYOxxFi+JXlpaicO1qHDJkEC4/73SJla3ZpsMQpoUwPj7cmr9kGRLTU7FcKgK/Vkr//hXYDmfY4zrrtJMxSAxqpVT8yBjnG/VcfMxX4SIlHY1OznHvU27SUSP5Ky8sFgNzGi4+93QcecRhePS+u/DvJx7ATj27I0/i5jeaYuMlL3Fyn+TLP93bAoqK60EbJD8F0vhNm/279/ymlZ0youMa2AvEkB575GDkrlguI4RqU158AGOGz8yXOA79zVaF8mfh+jXo3j4NF55/lvlmk+OlefmnP9pSfuGyWIaenHbhZjKBhqC+8Bq3CjxwwN54bsTduPfuW8zHFdctWYpVy1eadLOCx0neuSSHescjl3bFSrmzjNiLXr1yNVb/OR8JUs5vvfYs7hn+r0adDhU/dYwP8J586U3Te0tKdja4aXOwrCWvfBj7+9z5ZgrMKf+N08q8WpkPOXggbrzhSiS66lGQm2s2iWEdNYbRKxP6ixQZ8P1/7rifs3QRzj3vLJx16vHmHOUTSn5tjRY3pLbS8YFF9oJF6LlzT3z69vM44bgjzfIjQoFZofHA3/xS5zGHD8L7rzyN4cNvMb2UNQsWY+W8+Vglxo9zdqulF7lq4RKjyPVSGJddeSkeufc2M1dn31sPBNPE3tLa7LXIkZ4xK1CptJ6zZ8zxvhfMHs3GvQmbRn558fprLsMeu+6CVYv/QkF+oaiUpFcKn8rCzSHMMSrarAbIkTSuX7UGF553Gq669Fx0lLRxuMwvZVJp3n7+MdOguCX9K5euRHl5pRlmBlLWbQHTwYpQJXL54LOvjQw2vAG2MbzGHmhfGZrfeduNOPecM6SRWIdsMU5FxaUmLLPMjb1caThypQzXigz77iz+pYyPkZEIK5GVdXOw3miDuFnHtMm/mW3kuC+C1b1gMA6WBTdrvkgauFGvPo3HH70H+x8wAKXSMGcvWIiVfy7ACjEgK/9chBV/LJTff2KVHLNF5zj1tIcY/meefBD/e/s5nHLSsejexelNhcoDrzP/4yZMwTci03ZdOpp0tIXyDkwDYqSHOe7X6TJq+8vb6dnUdNj88lv6p53yDzz80N3IyMzEmkWLkbtuPWolz/TDRpQrLjjnulrqb86KVbj6qssw/Obr0E4a4lCya6u0+DZ6pvJI5eIQ9urLzsddt1xjhsisUFZg/kKzf9KWde3cAbv364OjhhyMw4ccglTpFXLHGG5q0kmGQwcM3Afnn30qbr3hChw1bIhRZMbZVGH8tXIV3hz5MRYuWoq0rEzw0yc0pt1kSMbvNAW7nwa+c6cO2H/gvkhMScZCMe5rly1DSW6+GfoUi8Eo5m8xIPxgGhsO5vmyC8402/g5DyQcubBHxi3y9pD8DR50gOmZ8E0VKirn2zisCrWxM3swbLn5bvpHH/zXvO3FpSfB8s0wOLWSvzYXhw45CEMPGmgqtekp+EG/7JV9O3o8FkseM0TBc0Xhjz/+KPPyghN34Hg415iVkYG999od+4rja5krVqxGgeStVGRTJrrAXshOvXYyOnHL9ZdjwD79fT4lHBymSzQEK1ZnY+zYiSgRmUVJL5Gy4vKremlA5/7+J/rusjN69+ph7qE4gsmEpx25RJlNZvrsujMOPXA/nCojoiMPPxR9+vVFF2n0+kgZ7bZ7X3G74Qhp4C+98CxcK2k/4+TjMEjkyI1piB3NBIvPGllu4nz+tbehqs6DRBkOM/0875L0R9XX4fwLzgk5PUW/1N1Pv/zefO3VRhcsXgvD4sf8+Nr1kEMOMLvz8xb/+xgvTzkbO0+T+yLMRyX33G0X7CFycKZkgsfHHnyPnbqbr7u2E7mulp7s2mUrUCLHUin/UumAcM+Hw4cejCcfugOnnnSc+YhecxbyU4bUvba0jV6Lf7OJmabxWSZDoPdffAKn/uNI87cjjNBCcwrT2bWIwyw+Zc+XITI/VcEWnfdzuMV3gDk3wzBJsHAZHg0ADce3P47HRdfdbobhNMx8K6eytAynHX80nnr0bmfYKS1xqLDyCgrN54AXSys9W3opS1etNh+Ho6HpLRVrwF57OK+hdu1sds0hvoXNMOyRjgbxylvvw0KuiZT0VFXxm01vB/1mk52DnPTbLJx4zGloL8aDPcdgCsUw4uNjsHDmH7jrvlvwwC3XmiGb/7pNJosVu0AagmtufwBff/EdevTtLT34dWL4zsMjd9xo0hssHmLzxCf+HA7yQUV5abnZ9Jo92hSp/DQgHD3YzwKHCs/CdIlP/DxlmtlmcVVOLuLS0horEoPgKIGN3UuP349BB+xryjzUUJ/ptEcrZ8qVOsZvrPMDeNYP4fw1y5jGgv7Zm3R6acHjIPY5AIf0511zG0aPn2Qa/nqvrEwa62sRV1OJn8Z8a14gYNi+IwD6c/y68YX0vM++5Ea069ZF/nauhYqf19nIsYFvx2Vgw2/AiUcdLvdsWmcYL8/bbzZVi3zLysrQr88uePz+27H/PnuGjItYWVKPqAPlUr+45IxyZZnHSEPBD/9xFzXbsWoObfGbTa0SMwWalpKCe++4B6M+/9oYRmaa50NhBUulNsoqLRg/CMZvD/HpPueiuMyJLbcttFCFwWtUVg5P3vrwE1RUVCJehixMD+PgXNC3P0/Gux//z/hjhaXyBYLn+QGxvcTInSCNw7+uuQRPioI9P+IePHH/bbjhqotwjPSQ+8kw13llclNDYdNLWTD+2fMWyPB+hbMOL3C02wSn4kYgTuT8zWdfNe4cFar8bN7YaHJzbjYqgw7ZH0ceMVh6IYPMSIIrK9gLbcoANIcN97uQJjqycmU2bnvwCfw2e54pSxrTYGVp00rHcrC6ySMNZvvMDPN5DuvSkpMbOwO8h4bO3h8Ma0T5+uutDzyB8T9NMNsvmgH9Vsh/S1MnOpmSno55s3/H6NHjpBNRZOpkMJkSyo/X+Xop6+v+++2NYYcNwjFHDTW6sP++/c2DpTY7o7EZtLghpTD5NJKvyZW4onCX9Lj+T3o47FnwGhWsKahkrAxURCot77Pn+bdV/lDKzAKl4nPLue9/GIufZViYLpWC540TP+w18gNvo97/2Ow76hhT515/GB+v8xIfjrFXzA+wUTE6tssS5Uky6XX8OukPhA2bvdCXn3/VLBvifKujXZvGu61gheeDvdVFJXjgieedk2K0QpWfU27OfJoxZF7DQ5yepV17uUENbXlsCQyb9/KYIcZv/oIluOa2+/HbrLmN8qcOBAuf91nHdFt9C+R4zdc/XTDqZPhO/3yf/u5Hn8Vnoz5HlvSYOffMJ9dWd9syFBlfkolKTMJroz7D1JlzjExDNVDEkaPT0DgNr8hWyptGmDpAuVhZWhx/fy9apUdKPA0eJCSnoC4+HsNvuhuPPf9GoyBZGZsSnlVW6yz+fwfCVk4W3sRJ0/D0i28iUnpCfDDkDPu8YpBg4jjvuWwFXn7pTcyRnpcNO5Cy8BqViXlwKpdTwWxlsxUkWPpsmPzm+v2PPI3ZS5abzzCQELq5TWBa+W46P8k7TmR4470jTN7pKNdgWBk5R6fS0PH3Bvl4PW8FGB7Tyu9U0ZjyEyznXn0rvhs3caMdhQKVpz9O2kK7UNh4uAcspwguuuFOjHz3IyR1aGc+wMgOBuca/y4wP4nJiSguLcddI57FL1NnmrJtSp5WTr7lb3XAX45Gz/5GMrG0iiGlwCgg9kjiZVjkSknCM1IQp17qzLVZoXLuoymDujkwbFZyFgyfxn8//hdcd/ejKJcKxU1ObK+I0A91gb0EbgM3adpMPPbYs43G1IYVCF4P5gLBcKzCcJ71Buk1/ThhCmJkGMn4ea1NIuniRwPZcx8lvao7pQxZbs2rTJvKKRAMg41bODBsI19JV6YY01yR8dVX32bm+tasz22swCz/lpA1w2UvlPEQviQw5KTz8d03o5HSvh2ivXOr9vrfBpGVSNXIlHsb3HrfY+YT5Jz2Ic2pu77lT+cPz7VZ/Q9Bq5UklYYCojHlpyVSO3fADz+Nx24DjsAXMtQm7MVRkDSoTi91ywTKeOyQk/Fycv/1dz7CNdcON+/0p6U5X6sMVJhGwSMjESVDde6+f+vtD+AHblYs4dDg8zrD3pLCpgF1KpATL+caL7vyFvMZZ66DNPsLBAk3UFo3IsBylK0NU8ahaIwYgui4WLz62nu44pZ7zYMep3w5jN28xpBlzGVihA+mRn32NUZ+8oX5OxwoKyNLOXIuuy4qEq+8/DZOu+AaTJhq97t09I3l6ZSp9+YtwDGezsYzdmRCWTwho58jjzwVi8XwcJmTW9JB+YQsyxA0qQctjJN2IKtdplmxcsl1w/Hz5GlGdtQBK4PNqR+8xwo/r7AIF1x/h1ka9XeiVZtECppKYHp23uUmeeXluPKia3HEaRdj7vzF5rrvHBSNqjWsLCDHcX6FPUQ65xyvU3F55H32/iXLV+Cqm+7GQw89iRoJNz09VbTRMba87gv/puO1CDGmsanJ+F2U5Wop2IefebnxFTnHoDY0pm3TdDnzP06a6o0fKiDvszJ44a0PcMGF1+DXWXPNzv+cFzUfuwuCE56Tv8Zw67gbjyODUPcGgq/jEn5ozDdMx8k5OR8MyodPXDkNMurTr/CPf15kvhrJBsLOhzFNG5eblY3zt5Ub7+EwnBXnuedeMw3XitVrTBrMN4w2SZuTV7axTtULblRsWfI/frUysX0W/pCh/tlnX4EzLr4Ov82Zawwqy8VJt9MQOOn2LVc6q29O2dIxLfRLZ40nj4zzoy++wd6HnYzHH34aVTExyJJeHN/yaY4R5f2M3x59887Ghg1XWFB2bMDoRJaUgW8cjnN01ryBJHmWxJhbG2UqeUkXeWbn5uGci6/Hw/9+wWxgbXWcfqxsrLx4jmH6yo7neA+Fzz1ljx52svl8CkeQ3CU/YNq8usn7JTLze1uzTVJBQZsdzqUS8KuGCZ0749fps3DMkadg0PFn48P/fWsKjPpm5xutkm5QWFZap+L6KrEpFIFLia6WIfNhR52G73+agBhRZM7v2cXuwZTZxEtF4G/psSRkpKNc7nnm2Vdw9Inn4fk3R5rlHIzHpo09m43TtXFaHT9uUwk+/up7HHbcWbj3gSeRU16JBH4+Rfz5PoixR671s8Mm3/Cs40sK9JsmvWc3PzIm+bLmJRQuCYfLjwjD8A2Tjuk138MXI8en1vLD+CU2bZQhlwHxZYbZfy7CBedfjYtvvMt87ZV+mG6n3HzTvaG87DXCHdHPuuQGM/R2S7zts7LMNa7t9E8b30ZiIxcXG23emHJyGzzPdjMSVmDmI1PKMzIlBWN+noKTTjgXw065AG999JmMVJzPlfimbWNn9Y3psOc26ABhxX/69few55ATcf0VN5nXRtO6djafHaYxZxqoB6FhRyIWqVI+9EsZ++afqwUoF4P8jRhnmd5mIeUaIyMKrsXmcigu9fONg87K2SzzEr++7RXLlzKVH8iQ8ufrzc//51UcJ52htz/63Hy7i2m3srHycvSC4Tt/8xrP0T349MsYevTpmD1/qVnpwnRRB3n0T5vzCrELHbMynARtZvZbghZfRxoKo9wChcpCcYmh4WYdbjFUyWJg+wzsjyMHH4KDB+6LfffYrVFhA0EjtWDJMnw9ejy+F7dk7nxUSGuWlJFmvvEunQljrEjTyuxglEWgf95bUlyKWqlwmRLmvgcOxCnHDjOvw/HV0WBwn9WJU2fgyx/HYdqEX7FWDHxEQhwSpbdrntpKr8AadjrKhPLggnX+vvGKC8yGwmyJN9IYSRO/wNhO0sJF0y+/+QHSxUiwtQ+WP4bH9bi563Jw2GGDcN5pJ5jv7fOcXPT6EiQdJFEMwJsffILf5y1AluTRDuEJ02zTTWNVU12DksJCJMjl3v374/STjjHfqOrauaPx7wvvo5HhlM5nMpSfN+cPeKTS8HVbpuW4I4eYpTH8tPNGD2O88uEKiaXLV+Ljz79BUUmZqeg8z7SEwpYnw4kUVyc9mvxiaRQlnngxGL1274NDD94fhx9yAAb072eW1YUKs6qqCpNnzDErPMZNmoqVs+ehRMotShpHrpO0EmXamqNzTB/98kuiN197idlOsIS7gDENPiMOpila5MS9Id6S8mFnxKYyVHpteXFv0STpVJxy3JHos2svs0WekbOPfKyc+Y38L78fg2pJE426DYPwNx3z5pJjgcjSVVKCtI4dMfSwQ3H2ycdi/336m7XegZg8fbbZRW3M16OxNr8AGR3aSWNUhY6iMzdfeSHKpKPBHvFGMC5JG19S+VBGQ9/+MA6du3Qy9b85Mm4ptqkhtTRWAnFcK0ql4d6HJcUlaJDWLUZa0KjoSLhT05CSloqkFOmBuUSgYliqa2tQnF+M8pwc1FVVoko62W5RACoBX9MU1ZTwnSyGUrJgWGXhvaagmLbKavOtd1dlJWLE6EVJpeG3u5OTE8UIOnNgpaVl5g2OGlEuvpNdK61oYpr0vmWIybA4pGK6+Ns3XbbS8UhjWi1KXi9OTnh9ePHqPRcye6RScHkZPx5m7w+EvcZhU6k0CqioMJXWRO+rBSY5UhbsDUm47BmbePzC9pcNwzGbTxSVok7kExspvYfUVPOAhR+Q45CcL1MUrc9FdUERKuTeCEk7GwrnY3lSntwFShqrOr4qK+kMBHvUEWLkYhISESM9Uys+XzmGgmkmVva8iw1BkcTrEcMcI+mMjpL8JKdKmUn6JX3cH5MyafDUmwa1RBpIT1GBGJh6VMv5SNEB6hxfD+bbVVY2JFh5+EP5Mj2Vol/lkha36Jf5WgAT6Fs+Aj8WGJGYiNjEeNNza07ebXr4r9Gt0nJ4GEdTcpay46u7Ft+4bD6d8nfqJKdpygsKEVNXi+j4BPN59TRp8NlI1nuk8ZKyr1ybgyq+7CC9YV7j96BEk0xHoEwajzqp9x7RJQncG5MXrywimGfJe6Kkjb3WUHrfGrQJQ2qxikR4tMMBLlBn76tKBEsFMO/Di18KlX645RY/G8wnyi4X1+bRSG2ZMgfDhsX00Jmhq8TPT2tUsPJzPodzNl4/bql4TBMVkEMkKgnTZNNFbFihiJBGhFMMxD8HbCREhRvDpWsqn75+qNiSKnGb3mPD5lwZCRW2r2wI/bGHww+yVVezzKpM748blvAtKg7NuPEHy47GkxshM0YWKMNgns0DOfnPFPJGSFzyLzdTYZp8Zbm5+Kabd3OEwLRTtzwyAqimzkna+QlnljPhdaabn16JkcY9RhpO7gDGcOw8oE1TMHkFw95r5Od1wcqH9lUEgDrR9c3Bpo15NnkxcjZnzL8b2Dw527QbWYpjj59h1BgZ1pg3B1nOlF1UVAQSYrnZD/WPu5054dNZmUVJI0z9CyRBkbS4iGbpZmvRpgypLxQO8S04Kyx/odmCpiPmKPdtNCzcSjTGI0EbFZTfnFNlmnzTSj++Ckj42ypac3DupQvt38QgfpurTIFkGwyb/uaETb/Wvw2bR1/Z8DINrPNwzJlr4zW6xvvFq5FtCHzjsWGHg79MGL5Nt3/erV8aTl//pLllEAwrg2bliXGKv83Nv42jJeTcKEfvP859Tv2wsKHia7Em/fxbjvZ6S+lmS9NmDak/VsCh2BYCbVTKYHgVsGm12P4IJZvmVsxtRXP0jbSFStyWCSXH7Ul2fxtDqiiK0lbR5lRRFCVM1JAqiqKEiRpSRVGUMFFDqiiKEiZqSBVFUcJEDamiKEqYqCFVFEUJEzWkiqIoYaKGVFEUJUzUkCqKooSJGlJFUZQwUUOqKIoSJmpIFUVRwkQNqaIoSpioIVUURQkTNaSKoihhooZUURQlTNSQKoqihIkaUkVRlDBRQ6ooihImakgVRVHCRA2poihKmKghVRRFCRM1pIqiKGGihlRRFCVM1JAqiqKEiRpSRVGUMFFDqiiKEhbA/wPJaFho6Y+/ngAAAABJRU5ErkJggg==;" vertex="1" parent="1">
                    <mxGeometry x="321" y="34.97" width="140" height="96.51" as="geometry"/>
                </mxCell>
                <mxCell id="14" style="edgeStyle=none;html=1;exitX=1;exitY=0.5;exitDx=0;exitDy=0;entryX=0.5;entryY=0;entryDx=0;entryDy=0;" edge="1" parent="1" source="8" target="9">
                    <mxGeometry relative="1" as="geometry"/>
                </mxCell>
                <mxCell id="8" value="&lt;div style=&quot;color: rgb(212, 212, 212); background-color: rgb(30, 30, 30); font-family: Consolas, &amp;quot;Courier New&amp;quot;, monospace; font-size: 14px; line-height: 19px;&quot;&gt;get_interest_trends_kw&lt;/div&gt;" style="shape=process;whiteSpace=wrap;html=1;backgroundOutline=1;" vertex="1" parent="1">
                    <mxGeometry x="110" y="240" width="230" height="60" as="geometry"/>
                </mxCell>
                <mxCell id="15" style="edgeStyle=none;html=1;exitX=1;exitY=0.5;exitDx=0;exitDy=0;" edge="1" parent="1" source="9" target="10">
                    <mxGeometry relative="1" as="geometry"/>
                </mxCell>
                <mxCell id="9" value="&lt;div style=&quot;color: rgb(212, 212, 212); background-color: rgb(30, 30, 30); font-family: Consolas, &amp;quot;Courier New&amp;quot;, monospace; font-size: 14px; line-height: 19px;&quot;&gt;get_anomalous_records&lt;/div&gt;" style="shape=process;whiteSpace=wrap;html=1;backgroundOutline=1;" vertex="1" parent="1">
                    <mxGeometry x="280" y="340" width="230" height="60" as="geometry"/>
                </mxCell>
                <mxCell id="16" style="edgeStyle=none;html=1;exitX=0;exitY=0.5;exitDx=0;exitDy=0;entryX=0.5;entryY=0;entryDx=0;entryDy=0;" edge="1" parent="1" source="10" target="11">
                    <mxGeometry relative="1" as="geometry"/>
                </mxCell>
                <mxCell id="17" style="edgeStyle=none;html=1;exitX=1;exitY=0.5;exitDx=0;exitDy=0;entryX=0.5;entryY=0;entryDx=0;entryDy=0;" edge="1" parent="1" source="10" target="12">
                    <mxGeometry relative="1" as="geometry"/>
                </mxCell>
                <mxCell id="10" value="&lt;div style=&quot;color: rgb(212, 212, 212); background-color: rgb(30, 30, 30); font-family: Consolas, &amp;quot;Courier New&amp;quot;, monospace; font-size: 14px; line-height: 19px;&quot;&gt;past_week_anomaly&lt;/div&gt;" style="shape=process;whiteSpace=wrap;html=1;backgroundOutline=1;" vertex="1" parent="1">
                    <mxGeometry x="520" y="440" width="195" height="60" as="geometry"/>
                </mxCell>
                <mxCell id="11" value="END" style="ellipse;whiteSpace=wrap;html=1;aspect=fixed;" vertex="1" parent="1">
                    <mxGeometry x="380" y="520" width="80" height="80" as="geometry"/>
                </mxCell>
                <mxCell id="18" style="edgeStyle=none;html=1;exitX=1;exitY=0.5;exitDx=0;exitDy=0;entryX=0.5;entryY=0;entryDx=0;entryDy=0;" edge="1" parent="1" source="12" target="13">
                    <mxGeometry relative="1" as="geometry"/>
                </mxCell>
                <mxCell id="12" value="&lt;div style=&quot;color: rgb(212, 212, 212); background-color: rgb(30, 30, 30); font-family: Consolas, &amp;quot;Courier New&amp;quot;, monospace; font-size: 14px; line-height: 19px;&quot;&gt;get_anomaly_trend&lt;/div&gt;" style="shape=process;whiteSpace=wrap;html=1;backgroundOutline=1;" vertex="1" parent="1">
                    <mxGeometry x="690" y="530" width="210" height="60" as="geometry"/>
                </mxCell>
                <mxCell id="13" value="&lt;div style=&quot;color: rgb(212, 212, 212); background-color: rgb(30, 30, 30); font-family: Consolas, &amp;quot;Courier New&amp;quot;, monospace; font-size: 14px; line-height: 19px;&quot;&gt;send_mail&lt;/div&gt;" style="shape=process;whiteSpace=wrap;html=1;backgroundOutline=1;" vertex="1" parent="1">
                    <mxGeometry x="910" y="630" width="120" height="60" as="geometry"/>
                </mxCell>
                <mxCell id="19" value="False" style="text;html=1;strokeColor=none;fillColor=none;align=center;verticalAlign=middle;whiteSpace=wrap;rounded=0;" vertex="1" parent="1">
                    <mxGeometry x="435" y="465" width="60" height="30" as="geometry"/>
                </mxCell>
                <mxCell id="20" value="True" style="text;html=1;strokeColor=none;fillColor=none;align=center;verticalAlign=middle;whiteSpace=wrap;rounded=0;" vertex="1" parent="1">
                    <mxGeometry x="729" y="465" width="60" height="30" as="geometry"/>
                </mxCell>
            </root>
        </mxGraphModel>
    </diagram>
</mxfile>